<?xml version="1.0" encoding="UTF-8"?>
<svg width="37px" height="31px" viewBox="0 0 37 31" version="1.1" xmlns="http://www.w3.org/2000/svg" xmlns:xlink="http://www.w3.org/1999/xlink">
    <title>Group 19 Copy</title>
    <g id="Page-1" stroke="none" stroke-width="1" fill="none" fill-rule="evenodd">
        <g id="icon-PTY-Copy" transform="translate(-29.000000, -225.000000)" stroke="#000000" stroke-width="1.08333333">
            <g id="Group-19-Copy" transform="translate(30.666667, 226.000000)">
                <g id="Group-8" transform="translate(0.000000, 0.046755)">
                    <polygon id="Stroke-2" points="0.49523859 28.1210836 0.49523859 8.08401324 10.4760394 8.08401324 10.4760394 0.103627034 25.5757894 0.103627034 25.5757894 8.30090703 34.2645982 8.30090703 34.2645982 28.1210836"></polygon>
                    <line x1="10.4760894" y1="8.08391283" x2="10.4760894" y2="28.1209832" id="Stroke-4"></line>
                    <line x1="25.62981" y1="8.08391283" x2="25.62981" y2="28.1209832" id="Stroke-6"></line>
                </g>
                <line x1="5.53085619" y1="12.5929057" x2="5.53085619" y2="15.9271457" id="Stroke-9" stroke-linecap="round"></line>
                <line x1="5.53085619" y1="20.9201714" x2="5.53085619" y2="24.2539093" id="Stroke-10" stroke-linecap="round"></line>
                <line x1="15.2093418" y1="12.5929057" x2="15.2093418" y2="15.9271457" id="Stroke-11" stroke-linecap="round"></line>
                <line x1="15.2093418" y1="4.85496864" x2="15.2093418" y2="8.18870657" id="Stroke-12" stroke-linecap="round"></line>
                <line x1="15.2093418" y1="20.9201714" x2="15.2093418" y2="24.2539093" id="Stroke-13" stroke-linecap="round"></line>
                <line x1="21.005499" y1="12.5929057" x2="21.005499" y2="15.9271457" id="Stroke-14" stroke-linecap="round"></line>
                <line x1="21.005499" y1="4.85496864" x2="21.005499" y2="8.18870657" id="Stroke-15" stroke-linecap="round"></line>
                <line x1="21.005499" y1="20.9201714" x2="21.005499" y2="24.2539093" id="Stroke-16" stroke-linecap="round"></line>
                <line x1="29.9879196" y1="12.5929057" x2="29.9879196" y2="15.9271457" id="Stroke-17" stroke-linecap="round"></line>
                <line x1="29.9879196" y1="20.9201714" x2="29.9879196" y2="24.2539093" id="Stroke-18" stroke-linecap="round"></line>
            </g>
        </g>
    </g>
</svg>