<?xml version="1.0" encoding="UTF-8"?>
<svg width="36px" height="31px" viewBox="0 0 36 31" version="1.1" xmlns="http://www.w3.org/2000/svg" xmlns:xlink="http://www.w3.org/1999/xlink">
    <title>Group 8 Copy</title>
    <defs>
        <polygon id="path-1" points="0 0.0935442857 34.5626679 0.0935442857 34.5626679 29.4253968 0 29.4253968"></polygon>
    </defs>
    <g id="Page-1" stroke="none" stroke-width="1" fill="none" fill-rule="evenodd">
        <g id="icon-PTY-Copy" transform="translate(-86.000000, -226.000000)">
            <g id="Group-8-Copy" transform="translate(86.666667, 226.000000)">
                <path d="M34.4105123,13.2884807 L28.4495531,8.80512875 L27.3903627,7.96751796 L27.3903627,7.9836124 L24.4453312,5.64501987 L24.4453312,5.64012156 L23.3939394,4.80880859 L17.7860437,0.364643074 C17.6882069,0.28836941 17.571937,0.249882698 17.456376,0.249882698 C17.3393972,0.249882698 17.2231273,0.28836941 17.1252904,0.364643074 L0.48522473,13.3038754 C0.306566106,13.4424276 0.238505678,13.6698491 0.312237809,13.8832754 C0.385260976,14.0911036 0.585897447,14.231755 0.812056577,14.231755 L4.63903773,14.231755 L4.64683632,28.7846302 C4.64683632,29.0715312 4.88292093,29.303851 5.17288671,29.303851 L29.7391564,29.303851 C30.0291222,29.303851 30.2652068,29.0715312 30.2652068,28.7846302 L30.2652068,26.0016911 L30.2333035,25.9058242 L30.2652068,24.2438981 L30.2652068,14.231755 L34.091479,14.231755 C34.3162202,14.231755 34.5168567,14.0883046 34.5912978,13.875578 C34.6643209,13.664251 34.5920067,13.4277327 34.4105123,13.2884807" id="Fill-1"></path>
                <path d="M19.0120494,24.4979243 C19.3035298,24.4979243 19.5413164,24.2620465 19.5413164,23.9730132 L19.5413164,22.8239989 C19.5413164,22.5340163 19.3035298,22.2981386 19.0120494,22.2981386 C18.7244042,22.2981386 18.4827823,22.539237 18.4827823,22.8239989 L18.4827823,23.9730132 C18.4794264,24.1096989 18.5312026,24.238791 18.6285225,24.3375084 C18.7306365,24.4409719 18.8663092,24.4979243 19.0120494,24.4979243" id="Fill-3" fill="#020303"></path>
                <g id="Group-7" transform="translate(0.000000, 0.381486)">
                    <mask id="mask-2" fill="white">
                        <use xlink:href="#path-1"></use>
                    </mask>
                    <g id="Clip-6"></g>
                    <path d="M34.352692,13.2566633 L28.351935,8.73037286 L27.2857304,7.88463 L27.2857304,7.90076651 L24.3220266,5.53961571 L24.3220266,5.53439508 L23.2630131,4.69482206 L17.6184566,0.208398254 C17.5206573,0.13151254 17.4036816,0.0935442857 17.2867059,0.0935442857 C17.1687714,0.0935442857 17.0517957,0.13151254 16.9539963,0.208398254 L0.204899222,13.2718506 C0.0241621918,13.411384 -0.0448726419,13.6410919 0.029435686,13.8570363 C0.103264605,14.0672856 0.304616204,14.2087173 0.53329409,14.2087173 L4.38486252,14.2087173 L4.39301246,28.9010078 C4.39301246,29.1900411 4.6303197,29.4254443 4.92227952,29.4254443 L29.6501734,29.4254443 C29.9421332,29.4254443 30.1794405,29.1900411 30.1794405,28.9010078 L30.1794405,26.091357 L30.1477995,25.9954871 L30.1794405,24.3172903 L30.1794405,14.2087173 L34.0314883,14.2087173 C34.2577691,14.2087173 34.4596002,14.0634887 34.5343879,13.8484935 C34.6077374,13.6358713 34.5353467,13.3966713 34.352692,13.2566633 L34.352692,13.2566633 Z M13.4955429,28.3836903 L21.07691,28.3836903 L21.07691,17.6415221 L13.4955429,17.6415221 L13.4955429,28.3836903 Z M29.1127564,28.3836903 L22.1359235,28.3836903 L22.1359235,17.116611 C22.1359235,16.8228316 21.8981369,16.583157 21.6061771,16.583157 L12.9581259,16.583157 C12.6666455,16.583157 12.4293383,16.8190348 12.4293383,17.1085427 L12.4293383,28.3751475 L5.45154658,28.3751475 L5.45154658,13.9353459 L5.49613158,13.9006998 L17.2823912,4.78214905 L17.3528643,4.83625381 L29.1127564,13.9434141 L29.1127564,28.3836903 Z M29.8309104,13.1584205 L29.7997489,13.1342157 L17.6112655,3.69720619 C17.4180638,3.55197762 17.1462392,3.55197762 16.9520787,3.69768079 L4.73339255,13.1584205 L2.07603086,13.1584205 L17.2828706,1.30093476 L17.3533437,1.35646333 L32.4384136,13.1584205 L29.8309104,13.1584205 Z" id="Fill-5" fill="#020303" mask="url(#mask-2)"></path>
                </g>
            </g>
        </g>
    </g>
</svg>