<?xml version="1.0" encoding="UTF-8"?>
<svg width="36px" height="33px" viewBox="0 0 36 33" version="1.1" xmlns="http://www.w3.org/2000/svg" xmlns:xlink="http://www.w3.org/1999/xlink">
    <title>Group 5 Copy</title>
    <defs>
        <polygon id="path-1" points="0.000105050505 0.163877918 34.5043636 0.163877918 34.5043636 31.5858499 0.000105050505 31.5858499"></polygon>
    </defs>
    <g id="Page-1" stroke="none" stroke-width="1" fill="none" fill-rule="evenodd">
        <g id="icon-PTY-Copy" transform="translate(-236.000000, -226.000000)">
            <g id="Group-5-Copy" transform="translate(236.666667, 226.000000)">
                <polygon id="Fill-1" points="0.721364036 7.61400463 0.720624349 7.61474634 1.08529007 8.50702349 1.08602975 8.50702349 6.54565991 6.22923204 6.54565991 14.5096826 3.88722463 14.5096826 3.88722463 14.5104243 3.88648495 14.5104243 3.88648495 30.3718929 3.88722463 30.3718929 3.88722463 30.931884 29.2296428 30.931884 29.2296428 30.3718929 29.2296428 14.5096826 27.1925447 14.5096826 27.1925447 6.60676244 33.1914067 9.17233737 33.1921464 9.17233737 33.5627296 8.28302706 33.5627296 8.28228535 16.5558448 1.00907697"></polygon>
                <g id="Group-4" transform="translate(0.000000, 0.362448)">
                    <mask id="mask-2" fill="white">
                        <use xlink:href="#path-1"></use>
                    </mask>
                    <g id="Clip-3"></g>
                    <path d="M26.8084687,14.3417131 L24.1233778,14.3417131 L24.1233778,8.04507389 L24.1228525,8.04507389 L9.83020606,8.04507389 L9.82915556,8.04507389 L9.82915556,14.3417131 L7.12252929,14.3417131 L7.12252929,5.22814251 L9.89166061,4.07315327 L13.2054788,2.69179877 L16.6311758,1.26306549 L21.6210747,3.39616322 L26.8084687,5.61401631 L26.8084687,14.3417131 Z M10.8323879,14.3417131 L23.1201455,14.3417131 L23.1201455,9.05897967 L10.8323879,9.05897967 L10.8323879,14.3417131 Z M23.8213576,21.8623039 L23.8213576,21.8617775 L10.3470545,21.8617775 L10.3470545,21.8623039 L10.3465293,21.8623039 L10.346004,21.8623039 L10.346004,30.572102 L4.32976162,30.572102 L4.32976162,19.5128431 C4.98370101,19.8876619 6.01109495,20.3177559 7.28640808,20.3177559 C8.25970101,20.3177559 9.37638788,20.0608576 10.5792162,19.3449117 C11.165398,19.7381555 12.3209535,20.3540796 13.8494384,20.3540796 C14.7717818,20.3540796 15.8280646,20.12245 16.9668121,19.4844159 C17.5887111,19.8581817 18.6591758,20.347236 20.0243071,20.347236 C20.9450747,20.347236 21.9976808,20.1198179 23.1290747,19.4859951 C23.7672566,19.875554 24.8277414,20.358291 26.1760646,20.358291 C27.0038626,20.358291 27.9398626,20.1703552 28.9478222,19.6702459 L28.9478222,30.572102 L23.8213576,30.572102 L23.8213576,21.8623039 Z M17.4957414,30.572102 L22.8186505,30.572102 L22.8186505,22.8762097 L17.4957414,22.8762097 L17.4957414,30.572102 Z M11.3497616,30.572102 L16.4925091,30.572102 L16.4925091,22.8762097 L11.3497616,22.8762097 L11.3497616,30.572102 Z M28.9478222,15.3556188 L28.9478222,18.5157831 C26.1025293,20.1893067 23.8990949,18.8400645 23.2750949,18.3694354 L23.0649939,18.6542344 L22.9305293,18.4341863 C19.966004,20.2772207 17.6942869,18.8269037 17.0692364,18.3383759 L16.8423273,18.6347565 L16.7330747,18.4541907 C13.6624485,20.3424981 11.3061657,18.6631838 10.8649535,18.3073165 L10.5750141,18.6747652 L10.339701,18.3078429 C7.23020606,20.3446038 4.8576404,18.7305669 4.32976162,18.3110015 L4.32976162,15.3556188 L28.9478222,15.3556188 Z M34.5044687,7.80186285 L16.6364283,0.163877918 L0.000105050505,7.10065698 L0.382488889,8.03823029 L0.383014141,8.03823029 L0.383539394,8.03770386 L0.383539394,8.03823029 L6.11929697,5.64612859 L6.11929697,14.3417131 L3.32652929,14.3417131 L3.32652929,30.9979846 L3.32652929,31.5860078 L29.9510545,31.5860078 L29.9510545,30.9979846 L29.9515798,30.9979846 L29.9515798,14.3417131 L27.8111758,14.3417131 L27.8111758,6.04253101 L34.1131556,8.736804 L34.1136808,8.736804 L34.5044687,7.80238928 L34.5039434,7.80238928 L34.5044687,7.80186285 Z" id="Fill-2" fill="#231F20" mask="url(#mask-2)"></path>
                </g>
            </g>
        </g>
    </g>
</svg>