<?xml version="1.0" encoding="UTF-8"?>
<svg width="20px" height="20px" viewBox="0 0 20 20" version="1.1" xmlns="http://www.w3.org/2000/svg" xmlns:xlink="http://www.w3.org/1999/xlink">
    <title>ic_Apple ID grey@2x</title>
    <g id="Icons-" stroke="none" stroke-width="1" fill="none" fill-rule="evenodd">
        <g id="icon" transform="translate(-82.000000, -186.000000)">
            <g id="ic_Apple-ID-grey" transform="translate(82.000000, 186.000000)">
                <path d="M12.8900585,9.51296891 C12.9046406,11.0833361 14.2676853,11.6059147 14.282786,11.6125847 C14.2712608,11.6494399 14.0649942,12.3573105 13.5646693,13.0884902 C13.1321605,13.7206321 12.6832733,14.3504584 11.9761434,14.3635027 C11.2813176,14.3763055 11.0578924,13.9514692 10.2635097,13.9514692 C9.46936707,13.9514692 9.22113143,14.3504574 8.5634014,14.3763055 C7.88084168,14.4021347 7.36107963,13.6927277 6.92497647,13.0629014 C6.03385248,11.7745706 5.35284937,9.42238104 6.26726441,7.83461475 C6.7215263,7.04612356 7.53332662,6.54681802 8.41446329,6.53401426 C9.08471949,6.52122905 9.71736168,6.98494028 10.1270978,6.98494028 C10.5365741,6.98494028 11.305369,6.42728689 12.1135747,6.50918534 C12.4519172,6.52326748 13.4016503,6.64585657 14.0114999,7.53851818 C13.9623611,7.56898057 12.878274,8.20008444 12.8900585,9.51297039 M11.5842137,5.65684205 C11.9465892,5.21820089 12.1904889,4.60757182 12.1239504,4 C11.6016133,4.02099327 10.9699904,4.34807094 10.5953296,4.78647078 C10.2595616,5.17469425 9.96550431,5.79607069 10.0448461,6.39161734 C10.6270521,6.43666184 11.2218203,6.09576217 11.5842137,5.65684277" id="Shape" fill="#CACACA" fill-rule="nonzero"></path>
                <circle id="Oval" stroke="#CACACA" stroke-width="0.5" cx="10" cy="10" r="9.75"></circle>
            </g>
        </g>
    </g>
</svg>