<svg xmlns="http://www.w3.org/2000/svg" width="18" height="22" viewBox="0 0 18 22">
    <g fill="none" fill-rule="evenodd">
        <g transform="translate(1 4)">
            <ellipse cx="7.5" cy="5.692" fill="#B5B5B5" rx="1" ry="1.004"/>
            <ellipse cx="4.239" cy="5.692" fill="#B5B5B5" rx="1" ry="1.004"/>
            <ellipse cx="10.761" cy="5.692" fill="#B5B5B5" rx="1" ry="1.004"/>
            <path stroke="#B5B5B5" d="M9.986 14.611l.835-3.728H13.5a1 1 0 0 0 1-1V1.5a1 1 0 0 0-1-1h-12a1 1 0 0 0-1 1v8.384a1 1 0 0 0 1 1l5.706-.001 2.78 3.728z"/>
        </g>
        <path stroke="#FFF" stroke-width=".1" d="M1 1h16v20H1z" opacity=".01"/>
    </g>
</svg>
