<svg xmlns="http://www.w3.org/2000/svg" xmlns:xlink="http://www.w3.org/1999/xlink" width="64" height="64" viewBox="0 0 64 64">
    <defs>
        <path id="765880m4ha" d="M0 0H64V64H0z"/>
    </defs>
    <g fill="none" fill-rule="evenodd">
        <g>
            <g>
                <g>
                    <g transform="translate(-8 -1577) translate(0 1417) translate(8 160) matrix(-1 0 0 1 64 0)">
                        <mask id="op5hbtk27b" fill="#fff">
                            <use xlink:href="#765880m4ha"/>
                        </mask>
                        <circle cx="34" cy="26" r="24" fill="#E9F7E3" mask="url(#op5hbtk27b)"/>
                        <g mask="url(#op5hbtk27b)">
                            <g transform="translate(1 5.429)">
                                <circle cx="5.143" cy="6" r="1.714" fill="#A8E58E"/>
                                <circle cx="1.714" cy="31.714" r="1.714" fill="#A8E58E"/>
                                <circle cx="29.143" cy="1.714" r="1.714" fill="#A8E58E"/>
                                <circle cx="61.286" cy="18.429" r="1.286" fill="#A8E58E"/>
                                <path fill="#378416" d="M8.571 10.286L8.571 12.93 10.646 12.857 10.998 14.283 12.742 13.677 13.116 15.429 14.571 15.429 13.583 11.925 11.949 12.857 11.571 11.063 9.809 11.64 9.809 10.286z"/>
                                <path fill="#A8E58E" d="M53.974 26.709L53.972 29.352 56.057 29.278 56.411 30.702 58.165 30.096 58.54 31.846 60.003 31.844 59.012 28.344 57.368 29.276 56.99 27.483 55.217 28.062 55.219 26.708z" transform="scale(-1 1) rotate(-20 0 352.468)"/>
                            </g>
                        </g>
                        <g mask="url(#op5hbtk27b)">
                            <g>
                                <path fill="#589F39" d="M1.714 9.429H27.427999999999997V16.286H1.714zM3.429 16.286H25.715V30H3.429z" transform="translate(20.571 10.571)"/>
                                <g stroke="#222" stroke-width=".857">
                                    <path d="M1.6 27.943L10.4 27.943 10.4 15.143 1.6 15.143zM13.6 27.943L22.4 27.943 22.4 15.143 13.6 15.143zM10.829 7.514v7.257H-.43V7.514H10.83zM24.429 7.514v7.257H13.17V7.514H24.43z" transform="translate(20.571 10.571)"/>
                                    <path fill="#FFF" d="M6.47-1.149l5.65 6.693 5.293-6.217.07 4.223 4.587.068-5.396 4.01H8.121L1.928 3.04l4.47-.068.072-4.12z" transform="translate(20.571 10.571)"/>
                                    <path fill="#FFF" d="M9 6.429H15V28.715000000000003H9z" transform="translate(20.571 10.571)"/>
                                </g>
                            </g>
                        </g>
                    </g>
                </g>
            </g>
        </g>
    </g>
</svg>
