<?xml version="1.0" encoding="UTF-8" standalone="no"?>
<svg width="35px" height="35px" viewBox="0 0 35 35" version="1.1" xmlns="http://www.w3.org/2000/svg" xmlns:xlink="http://www.w3.org/1999/xlink">
    <!-- Generator: Sketch 46.2 (44496) - http://www.bohemiancoding.com/sketch -->
    <title>icon infomation</title>
    <desc>Created with Sketch.</desc>
    <defs>
        <polygon id="path-1" points="0 35 35 35 35 0 0 0"></polygon>
    </defs>
    <g id="Page-1" stroke="none" stroke-width="1" fill="none" fill-rule="evenodd">
        <g id="Multiple-selection" transform="translate(-147.000000, -617.000000)">
            <g id="Group-12" transform="translate(137.000000, 607.000000)">
                <g id="Group-20">
                    <g id="icon-infomation" style="mix-blend-mode: luminosity;" transform="translate(10.000000, 10.000000)">
                        <path d="M17.4999463,0.945945946 C8.35746238,0.945945946 0.945945946,8.35743835 0.945945946,17.5 C0.945945946,26.6425616 8.35746238,34.0540541 17.4999463,34.0540541 C26.6425376,34.0540541 34.0540541,26.6425616 34.0540541,17.5 C34.0540541,8.35743835 26.6425376,0.945945946 17.4999463,0.945945946 Z" id="Stroke-1" stroke="#616161" stroke-width="1.5"></path>
                        <mask id="mask-2" fill="white">
                            <use xlink:href="#path-1"></use>
                        </mask>
                        <g id="Clip-4"></g>
                        <path d="M16.0526418,28.3783784 L19.2962973,28.3783784 L19.2962973,25.0990424 L16.0526418,25.0990424 L16.0526418,28.3783784 Z M14.3974191,11.4364664 C14.4097428,10.1941933 14.9295375,9.25686194 16.0417486,8.75984241 C16.5649543,8.52595086 17.1606716,8.35968928 17.729541,8.34049252 C19.4621167,8.28224029 20.9910218,8.86376969 21.3675538,10.9511414 C21.6118266,12.3060575 21.4257612,13.6253382 20.5141398,14.7250697 C19.4357088,16.0258157 18.3367017,17.3113365 17.2013838,18.561884 C16.0661759,19.8123212 16.107108,21.3087858 16.1096388,22.8138558 L19.2270867,22.8138558 C19.2270867,22.5806262 19.2307178,22.3911961 19.2265366,22.2016557 C19.1993585,20.939855 19.6122014,19.8830403 20.571907,19.0250334 C21.1360449,18.5205117 21.6382344,17.9408578 22.1325015,17.3639621 C23.3459427,15.9472634 24.4172216,14.4495852 24.5644454,12.4962598 C24.7181612,10.4557768 24.3114801,8.60152431 22.7087431,7.18250872 C21.7030437,6.29217628 20.48102,5.88783076 19.1721804,5.74893007 C17.3003032,5.5499016 15.482122,5.71572188 13.8436243,6.75609795 C12.1496701,7.83155776 11.3057189,9.37336641 11.353253,11.4361354 C12.3624734,11.4364664 13.3396743,11.4364664 14.3974191,11.4364664 L14.3974191,11.4364664 Z" id="Fill-3" fill="#616161" mask="url(#mask-2)"></path>
                    </g>
                </g>
            </g>
        </g>
    </g>
</svg>
