<svg xmlns="http://www.w3.org/2000/svg" xmlns:xlink="http://www.w3.org/1999/xlink" width="940" height="96" viewBox="0 0 940 96">
    <defs>
        <linearGradient id="is7hyppvhf" x1="78.21%" x2="34.161%" y1="104.573%" y2="-9.263%">
            <stop offset="15%" stop-color="#FFE182"/>
            <stop offset="15.77%" stop-color="#FDDD7E"/>
            <stop offset="25.04%" stop-color="#EAB14C"/>
            <stop offset="32.07%" stop-color="#DE962D"/>
            <stop offset="36%" stop-color="#D98C21"/>
            <stop offset="53%" stop-color="#FFC737"/>
            <stop offset="75%" stop-color="#FFF1BE"/>
            <stop offset="94%" stop-color="#FEF6A5"/>
            <stop offset="100%" stop-color="#FDFDD1"/>
        </linearGradient>
        <linearGradient id="w8u373rrne" x1="78.137%" x2="35.878%" y1="104.387%" y2="-4.827%">
            <stop offset="0%" stop-color="#9F7623"/>
            <stop offset="100%" stop-color="#FFE799"/>
        </linearGradient>
        <linearGradient id="t1oye99knh" x1="859.525%" x2="7.804%" y1="2146.69%" y2="-54.713%">
            <stop offset="15%" stop-color="#FFE182"/>
            <stop offset="15.77%" stop-color="#FDDD7E"/>
            <stop offset="25.04%" stop-color="#EAB14C"/>
            <stop offset="32.07%" stop-color="#DE962D"/>
            <stop offset="36%" stop-color="#D98C21"/>
            <stop offset="53%" stop-color="#FFC737"/>
            <stop offset="75%" stop-color="#FFF1BE"/>
            <stop offset="94%" stop-color="#FEF6A5"/>
            <stop offset="100%" stop-color="#FDFDD1"/>
        </linearGradient>
        <linearGradient id="5s3l8qt2ig" x1="68.176%" x2="29.235%" y1="101.324%" y2=".672%">
            <stop offset="0%" stop-color="#9F7623"/>
            <stop offset="100%" stop-color="#FFE799"/>
        </linearGradient>
        <linearGradient id="me1an1sr0j" x1="57.227%" x2="-794.494%" y1="71.08%" y2="-2130.323%">
            <stop offset="15%" stop-color="#FFE182"/>
            <stop offset="15.77%" stop-color="#FDDD7E"/>
            <stop offset="25.04%" stop-color="#EAB14C"/>
            <stop offset="32.07%" stop-color="#DE962D"/>
            <stop offset="36%" stop-color="#D98C21"/>
            <stop offset="53%" stop-color="#FFC737"/>
            <stop offset="75%" stop-color="#FFF1BE"/>
            <stop offset="94%" stop-color="#FEF6A5"/>
            <stop offset="100%" stop-color="#FDFDD1"/>
        </linearGradient>
        <linearGradient id="hpsu7nizli" x1="68.29%" x2="29.349%" y1="99.67%" y2="-.981%">
            <stop offset="0%" stop-color="#9F7623"/>
            <stop offset="100%" stop-color="#FFE799"/>
        </linearGradient>
        <linearGradient id="agh4l2gril" x1="64.358%" x2="20.586%" y1="104.456%" y2="-8.471%">
            <stop offset="15%" stop-color="#FFE182"/>
            <stop offset="15.77%" stop-color="#FDDD7E"/>
            <stop offset="25.04%" stop-color="#EAB14C"/>
            <stop offset="32.07%" stop-color="#DE962D"/>
            <stop offset="36%" stop-color="#D98C21"/>
            <stop offset="53%" stop-color="#FFC737"/>
            <stop offset="75%" stop-color="#FFF1BE"/>
            <stop offset="94%" stop-color="#FEF6A5"/>
            <stop offset="100%" stop-color="#FDFDD1"/>
        </linearGradient>
        <linearGradient id="p6wrbisyak" x1="64.287%" x2="22.296%" y1="104.274%" y2="-4.061%">
            <stop offset="0%" stop-color="#9F7623"/>
            <stop offset="100%" stop-color="#FFE799"/>
        </linearGradient>
        <linearGradient id="v6x179lven" x1="73.41%" x2="24.93%" y1="110.197%" y2="-14.548%">
            <stop offset="15%" stop-color="#FFE182"/>
            <stop offset="15.77%" stop-color="#FDDD7E"/>
            <stop offset="25.04%" stop-color="#EAB14C"/>
            <stop offset="32.07%" stop-color="#DE962D"/>
            <stop offset="36%" stop-color="#D98C21"/>
            <stop offset="53%" stop-color="#FFC737"/>
            <stop offset="75%" stop-color="#FFF1BE"/>
            <stop offset="94%" stop-color="#FEF6A5"/>
            <stop offset="100%" stop-color="#FDFDD1"/>
        </linearGradient>
        <linearGradient id="l40if62f5m" x1="68.051%" x2="32.102%" y1="96.406%" y2="3.906%">
            <stop offset="0%" stop-color="#9F7623"/>
            <stop offset="100%" stop-color="#FFE799"/>
        </linearGradient>
        <path id="tgn647y55a" d="M0 0H940V96H0z"/>
        <path id="yutxr879uc" d="M0 0H29V27H0z"/>
        <path id="0qja1rx1so" d="M0 0H20.291V20.291H0z"/>
        <path id="gyhjmgvqgq" d="M0 0H20.291V20.291H0z"/>
    </defs>
    <g fill="none" fill-rule="evenodd">
        <g>
            <g>
                <g transform="translate(-250 -1130) translate(250 1090) translate(0 40)">
                    <mask id="jtjy2z1pvb" fill="#fff">
                        <use xlink:href="#tgn647y55a"/>
                    </mask>
                    <use fill="#FFF" xlink:href="#tgn647y55a"/>
                    <g mask="url(#jtjy2z1pvb)">
                        <g>
                            <path fill="#589F39" d="M91.75 0H1031.75V298H91.75z" transform="translate(-91.75 -40.5)"/>
                            <g>
                                <path fill="#FFD051" d="M4.486 103.565c.006-.631.008-1.261.008-1.891 0-.63-.002-1.26-.008-1.89 0 .014-.052-.749-.018-.784-1.283 1.314-2.744 2.366-4.376 3.153-.19.091-.027 2.458-.027 2.673 0 .194.16 2.61.027 2.674 1.632-.787 3.093-1.839 4.376-3.153.06-.06.018-.765.018-.782" transform="translate(-91.75 -40.5) translate(273.5 25.5)"/>
                                <path fill="#2F6C15" d="M80.985 63.289c.007-.662.008-1.323.008-1.984 0-.66-.001-1.322-.008-1.983 0 .016-.054-.785-.018-.822-1.205 1.235-2.749 1.893-4.437 1.89-.037 0-.043 5.61 0 5.61 1.688.002 3.232-.655 4.437-1.89.062-.064.018-.803.018-.821" transform="translate(-91.75 -40.5) translate(273.5 25.5)"/>
                                <path fill="#FFD051" d="M284.992 33.654c.006-.643.007-1.285.007-1.928 0-.642 0-1.285-.007-1.927 0 .046-.036-.789-.018-.799l-3.448 2.049c-.045.026-.018.823-.018.798-.006.642-.007 1.285-.007 1.927 0 .643.001 1.285.007 1.928 0-.046.035.788.018.798l3.448-2.049c.045-.026.018-.822.018-.797M472.412 91.246c-1.768-.669-3.252-1.77-4.375-3.246.047.062-.02.75-.02.77-.006.618-.007 1.238-.007 1.857 0 .62.001 1.239.008 1.857 0 .06-.052.676.02.77 1.122 1.475 2.606 2.577 4.374 3.246-.12-.045.027-2.452.027-2.627 0-.194.153-2.558-.027-2.627" transform="translate(-91.75 -40.5) translate(273.5 25.5)"/>
                                <path fill="#E1E1E1" d="M129.466 36.87c-2.254.021-4.321-.804-5.93-2.37.037.037-.02.84-.02.824-.007.664-.009 1.327-.009 1.991 0 .663.002 1.327.009 1.991 0 .018-.046.76.02.824 1.609 1.566 3.676 2.391 5.93 2.37.062-.001.025-5.63 0-5.63" transform="translate(-91.75 -40.5) translate(273.5 25.5)"/>
                                <path fill="#378416" d="M103.943 19.076c-2.09-.148-3.96-1.039-5.41-2.576.038.04-.018.804-.018.794-.006.64-.008 1.279-.008 1.918s.002 1.278.008 1.917c0 .025-.044.727.019.795 1.45 1.538 3.319 2.428 5.409 2.576-.084-.006.163-5.412 0-5.424" transform="translate(-91.75 -40.5) translate(273.5 25.5)"/>
                                <path fill="#E1E1E1" d="M56.445 16.096c-2.506-.144-4.692-1.475-5.906-3.596.055.096-.019.732-.02.79-.006.638-.008 1.275-.008 1.912 0 .636.002 1.273.009 1.91 0 .104-.056.66.02.792 1.213 2.12 3.399 3.452 5.905 3.596-.068-.004.153-5.395 0-5.404M253.484 23.576c.006-.632.007-1.264.007-1.896 0-.631-.001-1.263-.007-1.894 0-.027-.062-.717-.018-.786-.794 1.247-1.78 2.3-2.94 3.14-.046.033-.017.8-.017.784-.006.632-.008 1.264-.008 1.896 0 .631.002 1.263.008 1.895 0-.04.038.77.018.785 1.16-.84 2.145-1.892 2.94-3.14.064-.1.016-.717.017-.784" transform="translate(-91.75 -40.5) translate(273.5 25.5)"/>
                                <path fill="#378416" d="M176.375 20.076c-2.293-.53-4.285-1.749-5.84-3.576.039.047-.02.797-.02.797-.005.637-.007 1.276-.007 1.915 0 .64.002 1.279.007 1.918 0 .035-.045.72.02.794 1.555 1.828 3.547 3.047 5.84 3.576-.331-.077.405-5.331 0-5.424M120.969 66.74c-1.666.026-3.196-.574-4.439-1.74.03.028-.018.792-.018.77-.005.62-.007 1.24-.007 1.86 0 .62.002 1.24.007 1.86 0 .008-.037.717.018.77 1.243 1.166 2.773 1.765 4.439 1.74.063-.002.012-5.26 0-5.26M295.426 28.732c-2.46-.707-4.723-1.782-6.8-3.232.216.15-.027 2.37-.027 2.634 0 .295-.24 2.448.027 2.634 2.077 1.45 4.34 2.525 6.8 3.232-.087-.025.027-2.476.027-2.634 0-.173.122-2.592-.027-2.634M354.911 98.478c-1.635-.755-3.238-1.582-4.81-2.478.158.09-.026 2.542-.026 2.76 0 .246-.185 2.642.026 2.762 1.572.896 3.175 1.723 4.81 2.478-.127-.059.026-2.568.026-2.76 0-.216.158-2.677-.026-2.762" transform="translate(-91.75 -40.5) translate(273.5 25.5)"/>
                                <path fill="#A5C2A8" d="M159.911 104.978c-1.636-.756-3.238-1.582-4.81-2.478.157.09-.026 2.542-.026 2.76 0 .246-.185 2.641.026 2.762 1.572.896 3.174 1.722 4.81 2.478-.127-.059.026-2.568.026-2.76 0-.216.158-2.677-.026-2.762M428.943 88.534c-1.485-.105-2.937.035-4.376.423-.133.036-.027 2.597-.027 2.771 0 .16.098 2.752.027 2.772 1.44-.388 2.891-.528 4.376-.423-.083-.006.163-5.53 0-5.543" transform="translate(-91.75 -40.5) translate(273.5 25.5)"/>
                                <path fill="#378416" d="M204.358 108.506c-2.878.726-5.833-.234-7.713-2.506.272.328-.027 2.213-.027 2.628 0 .452-.282 2.253.027 2.628 1.88 2.272 4.835 3.232 7.713 2.506.463-.117-.387-5.159 0-5.256" transform="translate(-91.75 -40.5) translate(273.5 25.5)"/>
                                <path fill="#FFCA0E" d="M255.45 102.17c-2.08-.514-3.808-1.804-4.92-3.67.04.068-.014.598-.015.635-.005.51-.006 1.02-.006 1.53s.001 1.02.006 1.53c0 .07-.042.54.015.634 1.112 1.866 2.84 3.156 4.92 3.671-.051-.013.02-2.042.02-2.165 0-.133.079-2.14-.02-2.164" transform="translate(-91.75 -40.5) translate(273.5 25.5)"/>
                                <path fill="#FFD051" d="M119.985 94.647c.005-.503.006-1.006.006-1.51s0-1.007-.006-1.51c-.001-.054-.059-.546-.015-.627-.496.924-1.377 1.55-2.427 1.727-.081.013-.022 2.014-.022 2.136 0 .116.051 2.132.022 2.137 1.05-.177 1.93-.803 2.427-1.727.058-.11.014-.537.015-.626" transform="translate(-91.75 -40.5) translate(273.5 25.5)"/>
                                <path fill="#FFCA0E" d="M190.46 77.67c0-.136-.1-2.143-.022-2.17l-4.876 1.662c-.126.042-.021 2.02-.021 2.169 0 .134.099 2.142.021 2.169l4.876-1.662c.126-.042.021-2.02.021-2.169M294.448 109.712c-1.93-.407-3.516-1.561-4.416-3.212.046.084-.016.57-.016.628-.006.505-.007 1.01-.007 1.516 0 .505.001 1.01.007 1.516 0 .093-.046.515.016.628.9 1.651 2.486 2.805 4.416 3.212-.049-.01.023-2.024.023-2.144 0-.13.078-2.123-.023-2.144" transform="translate(-91.75 -40.5) translate(273.5 25.5)"/>
                            </g>
                            <g>
                                <path fill="#FFD051" d="M208.492 23.654c.006-.643.007-1.285.007-1.928 0-.642 0-1.285-.007-1.927 0 .046-.036-.789-.018-.799l-3.448 2.049c-.045.026-.018.823-.018.798-.006.642-.007 1.285-.007 1.927 0 .643.001 1.285.007 1.928 0-.046.035.788.018.798l3.448-2.049c.045-.026.018-.822.018-.797" transform="translate(-91.75 -40.5) translate(0 55.5)"/>
                                <path fill="#E1E1E1" d="M376.984 23.576c.006-.632.007-1.264.007-1.896 0-.631-.001-1.263-.007-1.894 0-.027-.062-.717-.018-.786-.794 1.247-1.78 2.3-2.94 3.14-.046.033-.017.8-.017.784-.006.632-.008 1.264-.008 1.896 0 .631.002 1.263.008 1.895 0-.04.038.77.018.785 1.16-.84 2.145-1.892 2.94-3.14.064-.1.016-.717.017-.784" transform="translate(-91.75 -40.5) translate(0 55.5)"/>
                                <path fill="#378416" d="M129.875 20.076c-2.293-.53-4.285-1.749-5.84-3.576.039.047-.02.797-.02.797-.005.637-.007 1.276-.007 1.915 0 .64.002 1.279.007 1.918 0 .035-.045.72.02.794 1.555 1.828 3.547 3.047 5.84 3.576-.331-.077.405-5.331 0-5.424M308.926 58.732c-2.46-.707-4.723-1.782-6.8-3.232.216.15-.027 2.37-.027 2.634 0 .295-.24 2.448.027 2.634 2.077 1.45 4.34 2.525 6.8 3.232-.087-.025.027-2.476.027-2.634 0-.173.122-2.592-.027-2.634" transform="translate(-91.75 -40.5) translate(0 55.5)"/>
                                <path fill="#BBC4FA" d="M262.894 15.637c-1.715-.845-3.483-1.556-5.314-2.137.1.032-.027 2.516-.027 2.681 0 .184-.136 2.63.027 2.682 1.83.58 3.6 1.292 5.314 2.137-.163-.08.028-2.475.028-2.681 0-.232.193-2.573-.028-2.682" transform="translate(-91.75 -40.5) translate(0 55.5)"/>
                                <path fill="#FFCA0E" d="M143.96 77.67c0-.136-.1-2.143-.022-2.17l-4.876 1.662c-.126.042-.021 2.02-.021 2.169 0 .134.099 2.142.021 2.169l4.876-1.662c.126-.042.021-2.02.021-2.169" transform="translate(-91.75 -40.5) translate(0 55.5)"/>
                            </g>
                            <g>
                                <path fill="#2F6C15" d="M4.485 43.289c.007-.662.008-1.323.008-1.984 0-.66-.001-1.322-.008-1.983 0 .016-.054-.785-.018-.822-1.205 1.235-2.749 1.893-4.437 1.89-.037 0-.043 5.61 0 5.61 1.688.002 3.232-.655 4.437-1.89.062-.064.018-.803.018-.821" transform="translate(-91.75 -40.5) translate(735 10.5)"/>
                                <path fill="#FFD051" d="M238.492 33.654c.006-.643.007-1.285.007-1.928 0-.642 0-1.285-.007-1.927 0 .046-.036-.789-.018-.799l-3.448 2.049c-.045.026-.018.823-.018.798-.006.642-.007 1.285-.007 1.927 0 .643.001 1.285.007 1.928 0-.046.035.788.018.798l3.448-2.049c.045-.026.018-.822.018-.797" transform="translate(-91.75 -40.5) translate(735 10.5)"/>
                                <path fill="#E1E1E1" d="M82.966 36.87c-2.254.021-4.321-.804-5.93-2.37.037.037-.02.84-.02.824-.007.664-.009 1.327-.009 1.991 0 .663.002 1.327.009 1.991 0 .018-.046.76.02.824 1.609 1.566 3.676 2.391 5.93 2.37.062-.001.025-5.63 0-5.63M10.945 26.096c-2.506-.144-4.692-1.475-5.906-3.596.055.096-.019.732-.02.79-.006.638-.008 1.275-.008 1.912 0 .636.002 1.273.009 1.91 0 .104-.056.66.02.792 1.213 2.12 3.399 3.452 5.905 3.596-.068-.004.153-5.395 0-5.404" transform="translate(-91.75 -40.5) translate(735 10.5)"/>
                                <path fill="#378416" d="M74.469 66.74c-1.666.026-3.196-.574-4.439-1.74.03.028-.018.792-.018.77-.005.62-.007 1.24-.007 1.86 0 .62.002 1.24.007 1.86 0 .008-.037.717.018.77 1.243 1.166 2.773 1.765 4.439 1.74.063-.002.012-5.26 0-5.26" transform="translate(-91.75 -40.5) translate(735 10.5)"/>
                                <path fill="#A5C2A8" d="M53.411 104.978c-1.636-.756-3.238-1.582-4.81-2.478.157.09-.026 2.542-.026 2.76 0 .246-.185 2.641.026 2.762 1.572.896 3.174 1.722 4.81 2.478-.127-.059.026-2.568.026-2.76 0-.216.158-2.677-.026-2.762" transform="translate(-91.75 -40.5) translate(735 10.5)"/>
                                <path fill="#378416" d="M157.858 108.506c-2.878.726-5.833-.234-7.713-2.506.272.328-.027 2.213-.027 2.628 0 .452-.282 2.253.027 2.628 1.88 2.272 4.835 3.232 7.713 2.506.463-.117-.387-5.159 0-5.256" transform="translate(-91.75 -40.5) translate(735 10.5)"/>
                                <path fill="#FFCA0E" d="M208.95 102.17c-2.08-.514-3.808-1.804-4.92-3.67.04.068-.014.598-.015.635-.005.51-.006 1.02-.006 1.53s.001 1.02.006 1.53c0 .07-.042.54.015.634 1.112 1.866 2.84 3.156 4.92 3.671-.051-.013.02-2.042.02-2.165 0-.133.079-2.14-.02-2.164M143.96 77.67c0-.136-.1-2.143-.022-2.17l-4.876 1.662c-.126.042-.021 2.02-.021 2.169 0 .134.099 2.142.021 2.169l4.876-1.662c.126-.042.021-2.02.021-2.169" transform="translate(-91.75 -40.5) translate(735 10.5)"/>
                            </g>
                        </g>
                    </g>
                    <g mask="url(#jtjy2z1pvb)">
                        <g>
                            <path fill="#030000" fill-opacity=".5" d="M44.788 70.461L62.95 93.878 90.443 82.169 73.23 66.34z" transform="translate(502.941 6.235)"/>
                            <g>
                                <path fill="#388316" d="M4.258 31.715L30.854 35.922 26.361 31.309 0 26.213z" transform="translate(502.941 6.235) translate(35.367 1.118)"/>
                                <path fill="#386621" d="M30.854 35.922L26.361 31.309 40.25 5.502 45.049 10.629z" transform="translate(502.941 6.235) translate(35.367 1.118)"/>
                                <path fill="#72C74C" d="M26.361 31.309L0 26.213 13.705 0 40.25 5.502z" transform="translate(502.941 6.235) translate(35.367 1.118)"/>
                                <path fill="#A9EC8B" d="M3.991 31.707L0 26.213 13.705 0 17.964 5.502z" transform="translate(502.941 6.235) translate(35.367 1.118)"/>
                                <path fill="#D8F9C9" d="M17.964 5.502L45.049 10.629 40.25 5.502 13.705 0z" transform="translate(502.941 6.235) translate(35.367 1.118)"/>
                            </g>
                            <g>
                                <path fill="#386621" d="M83.569 27.14L89.301 49.74 71.54 40.528 66.132 15.776z" transform="translate(502.941 6.235) rotate(20 11.458 64.98)"/>
                                <path fill="#388316" d="M66.099 15.687L71.187 37.325 48.106 52.646 41.475 29.821z" transform="translate(502.941 6.235) rotate(20 11.458 64.98)"/>
                                <g transform="translate(502.941 6.235) rotate(20 11.458 64.98) translate(46.782 18.866)">
                                    <mask id="s96mdxnktd" fill="#fff">
                                        <use xlink:href="#yutxr879uc"/>
                                    </mask>
                                    <use fill="#FFF" fill-opacity="0" xlink:href="#yutxr879uc"/>
                                    <g mask="url(#s96mdxnktd)">
                                        <g>
                                            <path fill="url(#is7hyppvhf)" stroke="url(#w8u373rrne)" stroke-width=".588" d="M10.092 0C8.2 0 6.442.505 4.954 1.414c-.033 0-.033.034-.067.034s-.034.033-.068.033c-.169.169-.169.404-.034.573l.034.033.034.034c.135.101.304.101.44.034l.033-.034c.372-.202.744-.404 1.116-.572C7.59 1.077 8.808.842 10.025.842s2.467.235 3.583.707c1.115.471 2.095 1.11 2.94 1.953.845.841 1.521 1.818 1.995 2.929.473 1.144.71 2.323.71 3.569 0 1.245-.237 2.457-.71 3.568-.17.37-.338.741-.575 1.111 0 .034-.034.034-.034.068-.067.134-.067.336.034.437l.034.034.034.034c.169.134.405.134.574-.034l.034-.034c.034-.033.034-.067.034-.067.879-1.481 1.42-3.232 1.42-5.084C20.197 4.478 15.668 0 10.091 0" transform="translate(3.47 9.534)"/>
                                            <path fill="url(#t1oye99knh)" stroke="url(#5s3l8qt2ig)" stroke-width=".588" d="M16.65 16.498c-.17.168-.17.437 0 .606.169.168.44.168.608 0 .17-.169.17-.438 0-.606-.169-.169-.44-.169-.608 0" transform="translate(3.47 9.534)"/>
                                            <path fill="url(#me1an1sr0j)" stroke="url(#hpsu7nizli)" stroke-width=".588" d="M3.569 3.535c.169-.168.169-.438 0-.606-.17-.168-.44-.168-.609 0-.169.168-.169.438 0 .606.17.169.44.169.609 0" transform="translate(3.47 9.534)"/>
                                            <path fill="url(#agh4l2gril)" stroke="url(#p6wrbisyak)" stroke-width=".588" d="M15.365 17.979l-.034-.034c-.135-.1-.304-.1-.439-.033-.034 0-.034.033-.068.033-.371.202-.743.404-1.115.573-1.15.471-2.366.707-3.583.707s-2.467-.236-3.583-.707c-1.115-.472-2.096-1.111-2.94-1.953-.846-.842-1.522-1.818-1.995-2.93-.473-1.144-.71-2.322-.71-3.568s.237-2.458.71-3.569c.17-.37.338-.74.575-1.111 0 0 .034-.034.034-.067.067-.135.067-.303-.034-.438 0-.034-.034-.034-.068-.067l-.067-.068c-.17-.1-.406-.1-.541.068-.034.033-.034.033-.034.067s-.034.034-.034.067C.526 6.431.02 8.181.02 10.067.02 15.589 4.55 20.1 10.126 20.1c1.893 0 3.65-.505 5.172-1.414l.033-.034c.034 0 .034-.033.068-.033.17-.169.17-.404.034-.573-.034-.067-.068-.067-.068-.067" transform="translate(3.47 9.534)"/>
                                            <path fill="url(#v6x179lven)" stroke="url(#l40if62f5m)" stroke-width=".588" d="M17.664 9.764c-.135-4.04-3.482-7.273-7.572-7.273-4.191 0-7.571 3.367-7.571 7.509 0 4.14 3.38 7.508 7.571 7.508.203 0 .406 0 .609-.034 2.095-.168 3.954-1.178 5.239-2.694.169-.202.338-.437.473-.64.811-1.178 1.25-2.625 1.25-4.14v-.236" transform="translate(3.47 9.534)"/>
                                            <g>
                                                <path fill="#9C6C18" d="M11.512 0.303L11.512 1.582 9.754 1.582 9.754 8.013 8.166 8.013 8.166 1.582 6.408 1.582 6.408 0.303z" transform="translate(3.47 9.534) translate(4.394 6.06)"/>
                                                <g>
                                                    <path fill="#9C6C18" d="M.695 4.613H.053V3.468h.642V.303h2.603c2.197 0 2.603 1.481 2.603 3.737 0 2.727-.609 3.973-2.704 3.973H.695v-3.4zm1.59-1.145h1.013v1.145H2.284v2.255h.71c1.115 0 1.318-.673 1.318-2.76 0-1.751-.135-2.66-1.352-2.66h-.676v2.02z" transform="translate(3.47 9.534) translate(4.394 6.06)"/>
                                                    <g fill="#FFF">
                                                        <path d="M.628 4.377H.019V3.232h.609V.067h2.569c2.163 0 2.569 1.482 2.569 3.738 0 2.727-.575 3.972-2.67 3.972H.627v-3.4zm1.555-1.145h1.014v1.145H2.183v2.256h.71c1.081 0 1.318-.674 1.318-2.761 0-1.75-.135-2.66-1.352-2.66h-.676v2.02zM11.343.067L11.343 1.347 9.653 1.347 9.653 7.777 8.064 7.777 8.064 1.347 6.374 1.347 6.374.067z" transform="translate(3.47 9.534) translate(4.394 6.06)"/>
                                                    </g>
                                                </g>
                                            </g>
                                        </g>
                                    </g>
                                </g>
                                <path fill="#B6ED9E" d="M59.554 43.022L66.014 66.274 48.216 53.357 41.475 29.821z" transform="translate(502.941 6.235) rotate(20 11.458 64.98)"/>
                                <g transform="translate(502.941 6.235) rotate(20 11.458 64.98) scale(-1 1) rotate(63 -8.822 -13.451)">
                                    <path fill="#DBFFCC" d="M.932 14.053l.855-2.766 1.77.3c2.01-.434 3.499-.285 4.465.447.967.732 2.003 2.197 3.11 4.395 2.107 2.158 3.68 3.039 4.719 2.642 1.038-.396.536.527-1.509 2.77-2.415-.384-3.84-1.07-4.274-2.057-.65-1.48-2.14-4.81-3.714-5.113-1.05-.202-2.857-.408-5.422-.618z" transform="rotate(11 8.654 16.564)"/>
                                    <path fill="#DBFFCC" d="M15.69 2.726l2.438-1.645 1.212 1.514c1.87 1.09 2.956 2.28 3.257 3.572.3 1.292.19 3.233-.33 5.822.298 3.276.986 5.125 2.062 5.547 1.075.422.09.815-2.958 1.18-1.671-2.05-2.365-3.632-2.081-4.75.425-1.676 1.362-5.466.307-6.843-.704-.918-2.006-2.384-3.907-4.397z" transform="rotate(15 20.22 9.898)"/>
                                    <circle cx="27.538" cy="18.842" r="1.449" fill="#FFD630"/>
                                    <ellipse cx="14.131" cy="7.972" fill="#FFF" rx="2.536" ry="2.174"/>
                                    <circle cx="17.393" cy="26.813" r="1.449" fill="#7ED321"/>
                                    <circle cx="3.546" cy="20.156" r="1.449" fill="#FFF"/>
                                    <path fill="#ABDC97" d="M23.194 30.985l-1.93-1.981 1.017-1.623c.512-2.163 1.283-3.571 2.312-4.224 1.03-.653 2.7-1.074 5.009-1.263 2.712-1.193 4.128-2.384 4.25-3.572.12-1.189.67-.313 1.65 2.626-1.37 2.227-2.56 3.351-3.57 3.374-1.514.034-4.933.136-5.869 1.565-.623.953-1.58 2.652-2.869 5.098z" transform="rotate(11 28.383 24.397)"/>
                                </g>
                                <g transform="translate(502.941 6.235) rotate(20 11.458 64.98) translate(62.137 18.676)">
                                    <mask id="7fgqqujzap" fill="#fff">
                                        <use xlink:href="#0qja1rx1so"/>
                                    </mask>
                                    <use fill="#FFF" fill-opacity="0" xlink:href="#0qja1rx1so"/>
                                    <g mask="url(#7fgqqujzap)">
                                        <g>
                                            <path fill="url(#is7hyppvhf)" stroke="url(#w8u373rrne)" stroke-width=".588" d="M10.092 0C8.2 0 6.442.505 4.954 1.414c-.033 0-.033.034-.067.034s-.034.033-.068.033c-.169.169-.169.404-.034.573l.034.033.034.034c.135.101.304.101.44.034l.033-.034c.372-.202.744-.404 1.116-.572C7.59 1.077 8.808.842 10.025.842s2.467.235 3.583.707c1.115.471 2.095 1.11 2.94 1.953.845.841 1.521 1.818 1.995 2.929.473 1.144.71 2.323.71 3.569 0 1.245-.237 2.457-.71 3.568-.17.37-.338.741-.575 1.111 0 .034-.034.034-.034.068-.067.134-.067.336.034.437l.034.034.034.034c.169.134.405.134.574-.034l.034-.034c.034-.033.034-.067.034-.067.879-1.481 1.42-3.232 1.42-5.084C20.197 4.478 15.668 0 10.091 0"/>
                                            <path fill="url(#t1oye99knh)" stroke="url(#5s3l8qt2ig)" stroke-width=".588" d="M16.65 16.498c-.17.168-.17.437 0 .606.169.168.44.168.608 0 .17-.169.17-.438 0-.606-.169-.169-.44-.169-.608 0"/>
                                            <path fill="url(#me1an1sr0j)" stroke="url(#hpsu7nizli)" stroke-width=".588" d="M3.569 3.535c.169-.168.169-.438 0-.606-.17-.168-.44-.168-.609 0-.169.168-.169.438 0 .606.17.169.44.169.609 0"/>
                                            <path fill="url(#agh4l2gril)" stroke="url(#p6wrbisyak)" stroke-width=".588" d="M15.365 17.979l-.034-.034c-.135-.1-.304-.1-.439-.033-.034 0-.034.033-.068.033-.371.202-.743.404-1.115.573-1.15.471-2.366.707-3.583.707s-2.467-.236-3.583-.707c-1.115-.472-2.096-1.111-2.94-1.953-.846-.842-1.522-1.818-1.995-2.93-.473-1.144-.71-2.322-.71-3.568s.237-2.458.71-3.569c.17-.37.338-.74.575-1.111 0 0 .034-.034.034-.067.067-.135.067-.303-.034-.438 0-.034-.034-.034-.068-.067l-.067-.068c-.17-.1-.406-.1-.541.068-.034.033-.034.033-.034.067s-.034.034-.034.067C.526 6.431.02 8.181.02 10.067.02 15.589 4.55 20.1 10.126 20.1c1.893 0 3.65-.505 5.172-1.414l.033-.034c.034 0 .034-.033.068-.033.17-.169.17-.404.034-.573-.034-.067-.068-.067-.068-.067"/>
                                            <path fill="url(#v6x179lven)" stroke="url(#l40if62f5m)" stroke-width=".588" d="M17.664 9.764c-.135-4.04-3.482-7.273-7.572-7.273-4.191 0-7.571 3.367-7.571 7.509 0 4.14 3.38 7.508 7.571 7.508.203 0 .406 0 .609-.034 2.095-.168 3.954-1.178 5.239-2.694.169-.202.338-.437.473-.64.811-1.178 1.25-2.625 1.25-4.14v-.236"/>
                                            <g>
                                                <path fill="#9C6C18" d="M11.512 0.303L11.512 1.582 9.754 1.582 9.754 8.013 8.166 8.013 8.166 1.582 6.408 1.582 6.408 0.303z" transform="translate(4.394 6.06)"/>
                                                <g>
                                                    <path fill="#9C6C18" d="M.695 4.613H.053V3.468h.642V.303h2.603c2.197 0 2.603 1.481 2.603 3.737 0 2.727-.609 3.973-2.704 3.973H.695v-3.4zm1.59-1.145h1.013v1.145H2.284v2.255h.71c1.115 0 1.318-.673 1.318-2.76 0-1.751-.135-2.66-1.352-2.66h-.676v2.02z" transform="translate(4.394 6.06)"/>
                                                    <g fill="#FFF">
                                                        <path d="M.628 4.377H.019V3.232h.609V.067h2.569c2.163 0 2.569 1.482 2.569 3.738 0 2.727-.575 3.972-2.67 3.972H.627v-3.4zm1.555-1.145h1.014v1.145H2.183v2.256h.71c1.081 0 1.318-.674 1.318-2.761 0-1.75-.135-2.66-1.352-2.66h-.676v2.02zM11.343.067L11.343 1.347 9.653 1.347 9.653 7.777 8.064 7.777 8.064 1.347 6.374 1.347 6.374.067z" transform="translate(4.394 6.06)"/>
                                                    </g>
                                                </g>
                                            </g>
                                        </g>
                                    </g>
                                </g>
                                <path fill="#D8F9C9" d="M83.569 27.14L89.301 49.74 66.014 66.274 59.554 43.022z" transform="translate(502.941 6.235) rotate(20 11.458 64.98)"/>
                            </g>
                            <path fill="#FFF" fill-rule="nonzero" d="M63.642 34.453L63.642 27.727 70.432 27.727 70.432 24.313 63.642 24.313 63.642 17.587 60.152 17.587 60.152 24.313 53.362 24.313 53.362 27.727 60.152 27.727 60.152 34.453z" transform="translate(502.941 6.235)"/>
                            <g transform="translate(502.941 6.235) translate(76.674 20.684)">
                                <mask id="9luxcwejdr" fill="#fff">
                                    <use xlink:href="#gyhjmgvqgq"/>
                                </mask>
                                <use fill="#FFF" fill-opacity="0" xlink:href="#gyhjmgvqgq"/>
                                <g mask="url(#9luxcwejdr)">
                                    <path fill="url(#is7hyppvhf)" stroke="url(#w8u373rrne)" stroke-width=".588" d="M10.092 0C8.2 0 6.442.505 4.954 1.414c-.033 0-.033.034-.067.034s-.034.033-.068.033c-.169.169-.169.404-.034.573l.034.033.034.034c.135.101.304.101.44.034l.033-.034c.372-.202.744-.404 1.116-.572C7.59 1.077 8.808.842 10.025.842s2.467.235 3.583.707c1.115.471 2.095 1.11 2.94 1.953.845.841 1.521 1.818 1.995 2.929.473 1.144.71 2.323.71 3.569 0 1.245-.237 2.457-.71 3.568-.17.37-.338.741-.575 1.111 0 .034-.034.034-.034.068-.067.134-.067.336.034.437l.034.034.034.034c.169.134.405.134.574-.034l.034-.034c.034-.033.034-.067.034-.067.879-1.481 1.42-3.232 1.42-5.084C20.197 4.478 15.668 0 10.091 0"/>
                                    <path fill="url(#t1oye99knh)" stroke="url(#5s3l8qt2ig)" stroke-width=".588" d="M16.65 16.498c-.17.168-.17.437 0 .606.169.168.44.168.608 0 .17-.169.17-.438 0-.606-.169-.169-.44-.169-.608 0"/>
                                    <path fill="url(#me1an1sr0j)" stroke="url(#hpsu7nizli)" stroke-width=".588" d="M3.569 3.535c.169-.168.169-.438 0-.606-.17-.168-.44-.168-.609 0-.169.168-.169.438 0 .606.17.169.44.169.609 0"/>
                                    <path fill="url(#agh4l2gril)" stroke="url(#p6wrbisyak)" stroke-width=".588" d="M15.365 17.979l-.034-.034c-.135-.1-.304-.1-.439-.033-.034 0-.034.033-.068.033-.371.202-.743.404-1.115.573-1.15.471-2.366.707-3.583.707s-2.467-.236-3.583-.707c-1.115-.472-2.096-1.111-2.94-1.953-.846-.842-1.522-1.818-1.995-2.93-.473-1.144-.71-2.322-.71-3.568s.237-2.458.71-3.569c.17-.37.338-.74.575-1.111 0 0 .034-.034.034-.067.067-.135.067-.303-.034-.438 0-.034-.034-.034-.068-.067l-.067-.068c-.17-.1-.406-.1-.541.068-.034.033-.034.033-.034.067s-.034.034-.034.067C.526 6.431.02 8.181.02 10.067.02 15.589 4.55 20.1 10.126 20.1c1.893 0 3.65-.505 5.172-1.414l.033-.034c.034 0 .034-.033.068-.033.17-.169.17-.404.034-.573-.034-.067-.068-.067-.068-.067"/>
                                    <path fill="url(#v6x179lven)" stroke="url(#l40if62f5m)" stroke-width=".588" d="M17.664 9.764c-.135-4.04-3.482-7.273-7.572-7.273-4.191 0-7.571 3.367-7.571 7.509 0 4.14 3.38 7.508 7.571 7.508.203 0 .406 0 .609-.034 2.095-.168 3.954-1.178 5.239-2.694.169-.202.338-.437.473-.64.811-1.178 1.25-2.625 1.25-4.14v-.236"/>
                                    <g>
                                        <path fill="#9C6C18" d="M11.512 0.303L11.512 1.582 9.754 1.582 9.754 8.013 8.166 8.013 8.166 1.582 6.408 1.582 6.408 0.303z" transform="translate(4.394 6.06)"/>
                                        <g>
                                            <path fill="#9C6C18" d="M.695 4.613H.053V3.468h.642V.303h2.603c2.197 0 2.603 1.481 2.603 3.737 0 2.727-.609 3.973-2.704 3.973H.695v-3.4zm1.59-1.145h1.013v1.145H2.284v2.255h.71c1.115 0 1.318-.673 1.318-2.76 0-1.751-.135-2.66-1.352-2.66h-.676v2.02z" transform="translate(4.394 6.06)"/>
                                            <g fill="#FFF">
                                                <path d="M.628 4.377H.019V3.232h.609V.067h2.569c2.163 0 2.569 1.482 2.569 3.738 0 2.727-.575 3.972-2.67 3.972H.627v-3.4zm1.555-1.145h1.014v1.145H2.183v2.256h.71c1.081 0 1.318-.674 1.318-2.761 0-1.75-.135-2.66-1.352-2.66h-.676v2.02zM11.343.067L11.343 1.347 9.653 1.347 9.653 7.777 8.064 7.777 8.064 1.347 6.374 1.347 6.374.067z" transform="translate(4.394 6.06)"/>
                                            </g>
                                        </g>
                                    </g>
                                </g>
                            </g>
                        </g>
                    </g>
                    <g mask="url(#jtjy2z1pvb)">
                        <g transform="translate(480.25 4.5)">
                            <circle cx="117" cy="14" r="3.5" fill="#A8E58E"/>
                            <circle cx="25.5" cy="31.5" r="3.5" fill="#A8E58E"/>
                            <circle cx="37.5" cy="3.5" r="3.5" fill="#A8E58E"/>
                            <circle cx="137" cy="44.5" r="2.5" fill="#A8E58E"/>
                            <path fill="#378416" d="M0.555 51.002L0.555 56.914 5.23 56.751 6.024 59.938 9.955 58.585 10.799 62.5 14.079 62.5 11.851 54.668 8.167 56.751 7.317 52.74 3.345 54.03 3.345 51.002z"/>
                            <path fill="#378416" d="M150.555 31.002L150.555 36.914 155.23 36.751 156.024 39.938 159.955 38.585 160.799 42.5 164.079 42.5 161.851 34.668 158.167 36.751 157.317 32.74 153.345 34.03 153.345 31.002z" transform="matrix(-1 0 0 1 314.634 0)"/>
                            <path fill="#A8E58E" d="M150.558 76.966L150.558 82.878 155.234 82.715 156.028 85.903 159.959 84.549 160.803 88.464 164.083 88.464 161.854 80.632 158.171 82.715 157.321 78.704 153.349 79.994 153.349 76.966z" transform="scale(-1 1) rotate(-20 0 974.925)"/>
                        </g>
                    </g>
                    <g mask="url(#jtjy2z1pvb)">
                        <g transform="translate(2.25 -2.5)">
                            <circle cx="75" cy="61" r="3.5" fill="#378416"/>
                            <circle cx="3.5" cy="38.5" r="3.5" fill="#A8E58E"/>
                            <circle cx="65.5" cy="3.5" r="3.5" fill="#A8E58E"/>
                            <circle cx="225" cy="51.5" r="2.5" fill="#A8E58E"/>
                            <path fill="#378416" d="M8.555 58.002L8.555 63.914 13.23 63.751 14.024 66.938 17.955 65.585 18.799 69.5 22.079 69.5 19.851 61.668 16.167 63.751 15.317 59.74 11.345 61.03 11.345 58.002z"/>
                            <path fill="#378416" d="M258.555 78.002L258.555 83.914 263.23 83.751 264.024 86.938 267.955 85.585 268.799 89.5 272.079 89.5 269.851 81.668 266.167 83.751 265.317 79.74 261.345 81.03 261.345 78.002z" transform="matrix(-1 0 0 1 530.634 0)"/>
                            <path fill="#2F6C15" d="M118.558 63.966L118.558 69.878 123.234 69.715 124.028 72.903 127.959 71.549 128.803 75.464 132.083 75.464 129.854 67.632 126.171 69.715 125.321 65.704 121.349 66.994 121.349 63.966z" transform="scale(-1 1) rotate(-20 0 780.444)"/>
                        </g>
                    </g>
                    <g mask="url(#jtjy2z1pvb)">
                        <g transform="translate(682.25 14.5)">
                            <circle cx="75" cy="44" r="3.5" fill="#A8E58E"/>
                            <circle cx="3.5" cy="21.5" r="3.5" fill="#A8E58E"/>
                            <circle cx="135.5" cy="3.5" r="3.5" fill="#A8E58E"/>
                            <circle cx="225" cy="34.5" r="2.5" fill="#A8E58E"/>
                            <path fill="#378416" d="M178.555 21.002L178.555 26.914 183.23 26.751 184.024 29.938 187.955 28.585 188.799 32.5 192.079 32.5 189.851 24.668 186.167 26.751 185.317 22.74 181.345 24.03 181.345 21.002z" transform="matrix(-1 0 0 1 370.634 0)"/>
                            <path fill="#378416" d="M118.558 46.966L118.558 52.878 123.234 52.715 124.028 55.903 127.959 54.549 128.803 58.464 132.083 58.464 129.854 50.632 126.171 52.715 125.321 48.704 121.349 49.994 121.349 46.966z" transform="scale(-1 1) rotate(-20 0 763.444)"/>
                        </g>
                    </g>
                    <g mask="url(#jtjy2z1pvb)">
                        <g fill-rule="nonzero">
                            <g>
                                <path fill="#2D4F1C" d="M7.112 22.664v-5.76l3.288 4.8 3.264-4.8v5.76h5.112V6.656h-4.224L10.4 12.8 6.224 6.656H2v16.008h5.112zm19.896.408c1.008 0 1.92-.128 2.736-.384.816-.256 1.516-.64 2.1-1.152.584-.512 1.032-1.16 1.344-1.944.312-.784.468-1.704.468-2.76V6.656H28.52v9.96c0 .56-.116.988-.348 1.284-.232.296-.62.444-1.164.444-.544 0-.932-.148-1.164-.444-.232-.296-.348-.724-.348-1.284v-9.96h-5.112v10.176c0 1.056.156 1.976.468 2.76.312.784.756 1.432 1.332 1.944.576.512 1.272.896 2.088 1.152.816.256 1.728.384 2.736.384zm11.256-.408l.528-1.44h4.848l.528 1.44h5.04L43.136 6.656h-3.84l-6.072 16.008h5.04zm4.032-4.968h-2.16l1.08-2.808 1.08 2.808zm18.6 4.968c.896 0 1.708-.116 2.436-.348.728-.232 1.344-.568 1.848-1.008.504-.44.892-.972 1.164-1.596.272-.624.408-1.32.408-2.088 0-.672-.1-1.24-.3-1.704-.2-.464-.42-.848-.66-1.152-.288-.352-.608-.64-.96-.864.224-.192.424-.432.6-.72.144-.24.28-.54.408-.9.128-.36.192-.796.192-1.308 0-.72-.132-1.348-.396-1.884-.264-.536-.632-.984-1.104-1.344-.472-.36-1.04-.632-1.704-.816-.664-.184-1.396-.276-2.196-.276h-6.264v16.008h6.528zm-1.008-10.032h-.576v-2.208h.576c.8 0 1.2.368 1.2 1.104 0 .736-.4 1.104-1.2 1.104zm0 6.264h-.576v-2.784h.576c1.216 0 1.824.464 1.824 1.392 0 .928-.608 1.392-1.824 1.392zM76.016 5.72L78.896 2h-3.528l-1.992 3.72h2.64zm-4.464 16.944l.528-1.44h4.848l.528 1.44h5.04L76.424 6.656h-3.84l-6.072 16.008h5.04zm4.032-4.968h-2.16l1.08-2.808 1.08 2.808zm12.288 4.968V16.52l4.392 6.144h4.224V6.656h-5.016v6.168l-4.416-6.168h-4.2v16.008h5.016zm20.208 0v-5.928h2.856v5.928h5.136V6.656h-5.136v5.448h-2.856V6.656h-5.112v16.008h5.112zm17.712.408c1.152 0 2.24-.22 3.264-.66 1.024-.44 1.916-1.04 2.676-1.8.76-.76 1.36-1.652 1.8-2.676.44-1.024.66-2.112.66-3.264 0-1.152-.22-2.24-.66-3.264-.44-1.024-1.04-1.916-1.8-2.676-.76-.76-1.652-1.36-2.676-1.8-1.024-.44-2.112-.66-3.264-.66-1.152 0-2.24.22-3.264.66-1.024.44-1.916 1.04-2.676 1.8-.76.76-1.36 1.652-1.8 2.676-.44 1.024-.66 2.112-.66 3.264 0 1.152.22 2.24.66 3.264.44 1.024 1.04 1.916 1.8 2.676.76.76 1.652 1.36 2.676 1.8 1.024.44 2.112.66 3.264.66zm0-5.04c-.464 0-.9-.088-1.308-.264-.408-.176-.764-.416-1.068-.72-.304-.304-.544-.66-.72-1.068-.176-.408-.264-.844-.264-1.308 0-.464.088-.9.264-1.308.176-.408.416-.764.72-1.068.304-.304.66-.544 1.068-.72.408-.176.844-.264 1.308-.264.464 0 .9.088 1.308.264.408.176.764.416 1.068.72.304.304.544.66.72 1.068.176.408.264.844.264 1.308 0 .464-.088.9-.264 1.308-.176.408-.416.764-.72 1.068-.304.304-.66.544-1.068.72-.408.176-.844.264-1.308.264zM143.696 5.72L141.704 2h-3.528l2.88 3.72h2.64zm-4.464 16.944l.528-1.44h4.848l.528 1.44h5.04l-6.072-16.008h-3.84l-6.072 16.008h5.04zm4.032-4.968h-2.16l1.08-2.808 1.08 2.808zm12.696 4.968V6.656h-5.424v16.008h5.424z" transform="translate(330 21.336) translate(2)"/>
                                <path fill="#D8F9C9" d="M5.112 20.664v-5.76l3.288 4.8 3.264-4.8v5.76h5.112V4.656h-4.224L8.4 10.8 4.224 4.656H0v16.008h5.112zm19.896.408c1.008 0 1.92-.128 2.736-.384.816-.256 1.516-.64 2.1-1.152.584-.512 1.032-1.16 1.344-1.944.312-.784.468-1.704.468-2.76V4.656H26.52v9.96c0 .56-.116.988-.348 1.284-.232.296-.62.444-1.164.444-.544 0-.932-.148-1.164-.444-.232-.296-.348-.724-.348-1.284v-9.96h-5.112v10.176c0 1.056.156 1.976.468 2.76.312.784.756 1.432 1.332 1.944.576.512 1.272.896 2.088 1.152.816.256 1.728.384 2.736.384zm11.256-.408l.528-1.44h4.848l.528 1.44h5.04L41.136 4.656h-3.84l-6.072 16.008h5.04zm4.032-4.968h-2.16l1.08-2.808 1.08 2.808zm18.6 4.968c.896 0 1.708-.116 2.436-.348.728-.232 1.344-.568 1.848-1.008.504-.44.892-.972 1.164-1.596.272-.624.408-1.32.408-2.088 0-.672-.1-1.24-.3-1.704-.2-.464-.42-.848-.66-1.152-.288-.352-.608-.64-.96-.864.224-.192.424-.432.6-.72.144-.24.28-.54.408-.9.128-.36.192-.796.192-1.308 0-.72-.132-1.348-.396-1.884-.264-.536-.632-.984-1.104-1.344-.472-.36-1.04-.632-1.704-.816-.664-.184-1.396-.276-2.196-.276h-6.264v16.008h6.528zm-1.008-10.032h-.576V8.424h.576c.8 0 1.2.368 1.2 1.104 0 .736-.4 1.104-1.2 1.104zm0 6.264h-.576v-2.784h.576c1.216 0 1.824.464 1.824 1.392 0 .928-.608 1.392-1.824 1.392zM74.016 3.72L76.896 0h-3.528l-1.992 3.72h2.64zm-4.464 16.944l.528-1.44h4.848l.528 1.44h5.04L74.424 4.656h-3.84l-6.072 16.008h5.04zm4.032-4.968h-2.16l1.08-2.808 1.08 2.808zm12.288 4.968V14.52l4.392 6.144h4.224V4.656h-5.016v6.168l-4.416-6.168h-4.2v16.008h5.016zm20.208 0v-5.928h2.856v5.928h5.136V4.656h-5.136v5.448h-2.856V4.656h-5.112v16.008h5.112zm17.712.408c1.152 0 2.24-.22 3.264-.66 1.024-.44 1.916-1.04 2.676-1.8.76-.76 1.36-1.652 1.8-2.676.44-1.024.66-2.112.66-3.264 0-1.152-.22-2.24-.66-3.264-.44-1.024-1.04-1.916-1.8-2.676-.76-.76-1.652-1.36-2.676-1.8-1.024-.44-2.112-.66-3.264-.66-1.152 0-2.24.22-3.264.66-1.024.44-1.916 1.04-2.676 1.8-.76.76-1.36 1.652-1.8 2.676-.44 1.024-.66 2.112-.66 3.264 0 1.152.22 2.24.66 3.264.44 1.024 1.04 1.916 1.8 2.676.76.76 1.652 1.36 2.676 1.8 1.024.44 2.112.66 3.264.66zm0-5.04c-.464 0-.9-.088-1.308-.264-.408-.176-.764-.416-1.068-.72-.304-.304-.544-.66-.72-1.068-.176-.408-.264-.844-.264-1.308 0-.464.088-.9.264-1.308.176-.408.416-.764.72-1.068.304-.304.66-.544 1.068-.72.408-.176.844-.264 1.308-.264.464 0 .9.088 1.308.264.408.176.764.416 1.068.72.304.304.544.66.72 1.068.176.408.264.844.264 1.308 0 .464-.088.9-.264 1.308-.176.408-.416.764-.72 1.068-.304.304-.66.544-1.068.72-.408.176-.844.264-1.308.264zM141.696 3.72L139.704 0h-3.528l2.88 3.72h2.64zm-4.464 16.944l.528-1.44h4.848l.528 1.44h5.04l-6.072-16.008h-3.84l-6.072 16.008h5.04zm4.032-4.968h-2.16l1.08-2.808 1.08 2.808zm12.696 4.968V4.656h-5.424v16.008h5.424z" transform="translate(330 21.336) translate(2)"/>
                            </g>
                            <path fill="#2D4F1C" d="M7.28 50.664c1.504 0 2.844-.172 4.02-.516 1.176-.344 2.168-.852 2.976-1.524.808-.672 1.424-1.508 1.848-2.508.424-1 .636-2.156.636-3.468 0-1.312-.212-2.468-.636-3.468-.424-1-1.04-1.836-1.848-2.508-.808-.672-1.8-1.176-2.976-1.512-1.176-.336-2.516-.504-4.02-.504H2.84v5.904H2v3.72h.84v6.384h4.44zm.672-4.56V44.28h2.208v-3.72H7.952v-1.344c1.2 0 2.128.28 2.784.84.656.56.984 1.424.984 2.592 0 1.168-.328 2.036-.984 2.604-.656.568-1.584.852-2.784.852zm16.68 4.968c1.008 0 1.92-.128 2.736-.384.816-.256 1.516-.64 2.1-1.152.584-.512 1.032-1.16 1.344-1.944.312-.784.468-1.704.468-2.76V40.2c.48 0 .948-.048 1.404-.144.456-.096.864-.264 1.224-.504s.652-.556.876-.948c.224-.392.336-.892.336-1.5v-2.448h-3.072v2.904h1.536c0 .336-.064.624-.192.864s-.296.436-.504.588c-.208.152-.452.264-.732.336-.28.072-.572.108-.876.108v-4.8h-5.136v9.96c0 .56-.116.988-.348 1.284-.232.296-.62.444-1.164.444-.544 0-.932-.148-1.164-.444-.232-.296-.348-.724-.348-1.284v-9.96h-5.112v10.176c0 1.056.156 1.976.468 2.76.312.784.756 1.432 1.332 1.944.576.512 1.272.896 2.088 1.152.816.256 1.728.384 2.736.384zm19.368 0c1.152 0 2.24-.22 3.264-.66 1.024-.44 1.916-1.04 2.676-1.8.76-.76 1.36-1.652 1.8-2.676.44-1.024.66-2.112.66-3.264 0-.928-.144-1.8-.432-2.616.336-.08.648-.192.936-.336.288-.144.54-.336.756-.576.216-.24.388-.528.516-.864.128-.336.192-.728.192-1.176v-2.448h-3.072v2.904h1.536c0 .464-.108.832-.324 1.104-.216.272-.492.472-.828.6-.336-.736-.764-1.408-1.284-2.016-.52-.608-1.112-1.132-1.776-1.572-.664-.44-1.388-.784-2.172-1.032-.784-.248-1.6-.372-2.448-.372-1.152 0-2.24.22-3.264.66-1.024.44-1.916 1.04-2.676 1.8-.76.76-1.36 1.652-1.8 2.676-.44 1.024-.66 2.112-.66 3.264 0 1.152.22 2.24.66 3.264.44 1.024 1.04 1.916 1.8 2.676.76.76 1.652 1.36 2.676 1.8 1.024.44 2.112.66 3.264.66zm0-5.04c-.464 0-.9-.088-1.308-.264-.408-.176-.764-.416-1.068-.72-.304-.304-.544-.66-.72-1.068-.176-.408-.264-.844-.264-1.308 0-.464.088-.9.264-1.308.176-.408.416-.764.72-1.068.304-.304.66-.544 1.068-.72.408-.176.844-.264 1.308-.264.464 0 .9.088 1.308.264.408.176.764.416 1.068.72.304.304.544.66.72 1.068.176.408.264.844.264 1.308 0 .464-.088.9-.264 1.308-.176.408-.416.764-.72 1.068-.304.304-.66.544-1.068.72-.408.176-.844.264-1.308.264zm1.536 8.472V51.6h-3.072v2.904h3.072zm17.952-3.432c.928 0 1.752-.096 2.472-.288.72-.192 1.336-.4 1.848-.624.592-.272 1.104-.584 1.536-.936l-2.52-4.44c-.24.24-.52.448-.84.624-.272.16-.608.304-1.008.432s-.856.192-1.368.192c-.512 0-.984-.088-1.416-.264-.432-.176-.808-.416-1.128-.72-.32-.304-.572-.66-.756-1.068-.184-.408-.276-.844-.276-1.308 0-.464.088-.9.264-1.308.176-.408.42-.764.732-1.068.312-.304.676-.544 1.092-.72.416-.176.872-.264 1.368-.264.48 0 .908.06 1.284.18s.7.244.972.372c.304.176.584.36.84.552l2.52-4.44c-.432-.304-.944-.584-1.536-.84-.512-.224-1.124-.424-1.836-.6s-1.524-.264-2.436-.264c-1.152 0-2.24.196-3.264.588-1.024.392-1.92.956-2.688 1.692-.768.736-1.376 1.62-1.824 2.652-.448 1.032-.672 2.188-.672 3.468 0 1.248.216 2.388.648 3.42.432 1.032 1.032 1.916 1.8 2.652.768.736 1.68 1.308 2.736 1.716 1.056.408 2.208.612 3.456.612zm18.648-.408V38.856h2.952v-4.2H73.904v4.2h2.952v11.808h5.28zM92.6 33.84c.656 0 1.208-.128 1.656-.384.448-.256.804-.572 1.068-.948s.452-.772.564-1.188c.112-.416.168-.784.168-1.104h-2.16c-.016.24-.08.448-.192.624-.08.16-.204.304-.372.432s-.412.192-.732.192-.568-.064-.744-.192c-.176-.128-.304-.272-.384-.432-.08-.144-.136-.352-.168-.624h-2.16c0 .32.056.688.168 1.104.112.416.3.812.564 1.188.264.376.62.692 1.068.948.448.256 1 .384 1.656.384zm-2.952 16.824l.528-1.44h4.848l.528 1.44h5.04L94.52 34.656h-3.84l-6.072 16.008h5.04zm4.032-4.968h-2.16l1.08-2.808 1.08 2.808zm.456 8.808V51.6h-3.072v2.904h3.072zm11.832-3.84V44.52l4.392 6.144h4.224V34.656h-5.016v6.168l-4.416-6.168h-4.2v16.008h5.016zm18.336.408c.784 0 1.544-.104 2.28-.312.736-.208 1.42-.504 2.052-.888.632-.384 1.204-.844 1.716-1.38.512-.536.952-1.132 1.32-1.788v-5.328h-6.168v3.36h1.44c-.32.4-.704.716-1.152.948-.448.232-.944.348-1.488.348-.464 0-.9-.084-1.308-.252-.408-.168-.764-.4-1.068-.696-.304-.296-.544-.652-.72-1.068-.176-.416-.264-.864-.264-1.344 0-.48.08-.928.24-1.344.16-.416.38-.772.66-1.068.28-.296.612-.528.996-.696.384-.168.808-.252 1.272-.252.416 0 .84.068 1.272.204.432.136.792.332 1.08.588l2.904-4.128c-.352-.304-.792-.584-1.32-.84-.448-.224-1-.424-1.656-.6-.656-.176-1.432-.264-2.328-.264-1.152 0-2.228.22-3.228.66-1 .44-1.864 1.04-2.592 1.8s-1.3 1.652-1.716 2.676c-.416 1.024-.624 2.112-.624 3.264 0 1.184.22 2.288.66 3.312.44 1.024 1.04 1.912 1.8 2.664.76.752 1.652 1.344 2.676 1.776 1.024.432 2.112.648 3.264.648zm18.6-.408v-5.928h2.856v5.928h5.136V34.656h-5.136v5.448h-2.856v-5.448h-5.112v16.008h5.112zm17.712.408c1.152 0 2.24-.22 3.264-.66 1.024-.44 1.916-1.04 2.676-1.8.76-.76 1.36-1.652 1.8-2.676.44-1.024.66-2.112.66-3.264 0-1.152-.22-2.24-.66-3.264-.44-1.024-1.04-1.916-1.8-2.676-.76-.76-1.652-1.36-2.676-1.8-1.024-.44-2.112-.66-3.264-.66-1.152 0-2.24.22-3.264.66-1.024.44-1.916 1.04-2.676 1.8-.76.76-1.36 1.652-1.8 2.676-.44 1.024-.66 2.112-.66 3.264 0 1.152.22 2.24.66 3.264.44 1.024 1.04 1.916 1.8 2.676.76.76 1.652 1.36 2.676 1.8 1.024.44 2.112.66 3.264.66zm0-5.04c-.464 0-.9-.088-1.308-.264-.408-.176-.764-.416-1.068-.72-.304-.304-.544-.66-.72-1.068-.176-.408-.264-.844-.264-1.308 0-.464.088-.9.264-1.308.176-.408.416-.764.72-1.068.304-.304.66-.544 1.068-.72.408-.176.844-.264 1.308-.264.464 0 .9.088 1.308.264.408.176.764.416 1.068.72.304.304.544.66.72 1.068.176.408.264.844.264 1.308 0 .464-.088.9-.264 1.308-.176.408-.416.764-.72 1.068-.304.304-.66.544-1.068.72-.408.176-.844.264-1.308.264zM178.52 33.72L176.528 30H173l2.88 3.72h2.64zm-4.464 16.944l.528-1.44h4.848l.528 1.44H185l-6.072-16.008h-3.84l-6.072 16.008h5.04zm4.032-4.968h-2.16l1.08-2.808 1.08 2.808zm12.696 4.968V34.656h-5.424v16.008h5.424z" transform="translate(330 21.336)"/>
                            <path fill="#D8F9C9" d="M5.28 48.664c1.504 0 2.844-.172 4.02-.516 1.176-.344 2.168-.852 2.976-1.524.808-.672 1.424-1.508 1.848-2.508.424-1 .636-2.156.636-3.468 0-1.312-.212-2.468-.636-3.468-.424-1-1.04-1.836-1.848-2.508-.808-.672-1.8-1.176-2.976-1.512-1.176-.336-2.516-.504-4.02-.504H.84v5.904H0v3.72h.84v6.384h4.44zm.672-4.56V42.28H8.16v-3.72H5.952v-1.344c1.2 0 2.128.28 2.784.84.656.56.984 1.424.984 2.592 0 1.168-.328 2.036-.984 2.604-.656.568-1.584.852-2.784.852zm16.68 4.968c1.008 0 1.92-.128 2.736-.384.816-.256 1.516-.64 2.1-1.152.584-.512 1.032-1.16 1.344-1.944.312-.784.468-1.704.468-2.76V38.2c.48 0 .948-.048 1.404-.144.456-.096.864-.264 1.224-.504s.652-.556.876-.948c.224-.392.336-.892.336-1.5v-2.448h-3.072v2.904h1.536c0 .336-.064.624-.192.864s-.296.436-.504.588c-.208.152-.452.264-.732.336-.28.072-.572.108-.876.108v-4.8h-5.136v9.96c0 .56-.116.988-.348 1.284-.232.296-.62.444-1.164.444-.544 0-.932-.148-1.164-.444-.232-.296-.348-.724-.348-1.284v-9.96h-5.112v10.176c0 1.056.156 1.976.468 2.76.312.784.756 1.432 1.332 1.944.576.512 1.272.896 2.088 1.152.816.256 1.728.384 2.736.384zm19.368 0c1.152 0 2.24-.22 3.264-.66 1.024-.44 1.916-1.04 2.676-1.8.76-.76 1.36-1.652 1.8-2.676.44-1.024.66-2.112.66-3.264 0-.928-.144-1.8-.432-2.616.336-.08.648-.192.936-.336.288-.144.54-.336.756-.576.216-.24.388-.528.516-.864.128-.336.192-.728.192-1.176v-2.448h-3.072v2.904h1.536c0 .464-.108.832-.324 1.104-.216.272-.492.472-.828.6-.336-.736-.764-1.408-1.284-2.016-.52-.608-1.112-1.132-1.776-1.572-.664-.44-1.388-.784-2.172-1.032-.784-.248-1.6-.372-2.448-.372-1.152 0-2.24.22-3.264.66-1.024.44-1.916 1.04-2.676 1.8-.76.76-1.36 1.652-1.8 2.676-.44 1.024-.66 2.112-.66 3.264 0 1.152.22 2.24.66 3.264.44 1.024 1.04 1.916 1.8 2.676.76.76 1.652 1.36 2.676 1.8 1.024.44 2.112.66 3.264.66zm0-5.04c-.464 0-.9-.088-1.308-.264-.408-.176-.764-.416-1.068-.72-.304-.304-.544-.66-.72-1.068-.176-.408-.264-.844-.264-1.308 0-.464.088-.9.264-1.308.176-.408.416-.764.72-1.068.304-.304.66-.544 1.068-.72.408-.176.844-.264 1.308-.264.464 0 .9.088 1.308.264.408.176.764.416 1.068.72.304.304.544.66.72 1.068.176.408.264.844.264 1.308 0 .464-.088.9-.264 1.308-.176.408-.416.764-.72 1.068-.304.304-.66.544-1.068.72-.408.176-.844.264-1.308.264zm1.536 8.472V49.6h-3.072v2.904h3.072zm17.952-3.432c.928 0 1.752-.096 2.472-.288.72-.192 1.336-.4 1.848-.624.592-.272 1.104-.584 1.536-.936l-2.52-4.44c-.24.24-.52.448-.84.624-.272.16-.608.304-1.008.432s-.856.192-1.368.192c-.512 0-.984-.088-1.416-.264-.432-.176-.808-.416-1.128-.72-.32-.304-.572-.66-.756-1.068-.184-.408-.276-.844-.276-1.308 0-.464.088-.9.264-1.308.176-.408.42-.764.732-1.068.312-.304.676-.544 1.092-.72.416-.176.872-.264 1.368-.264.48 0 .908.06 1.284.18s.7.244.972.372c.304.176.584.36.84.552l2.52-4.44c-.432-.304-.944-.584-1.536-.84-.512-.224-1.124-.424-1.836-.6s-1.524-.264-2.436-.264c-1.152 0-2.24.196-3.264.588-1.024.392-1.92.956-2.688 1.692-.768.736-1.376 1.62-1.824 2.652-.448 1.032-.672 2.188-.672 3.468 0 1.248.216 2.388.648 3.42.432 1.032 1.032 1.916 1.8 2.652.768.736 1.68 1.308 2.736 1.716 1.056.408 2.208.612 3.456.612zm18.648-.408V36.856h2.952v-4.2H71.904v4.2h2.952v11.808h5.28zM90.6 31.84c.656 0 1.208-.128 1.656-.384.448-.256.804-.572 1.068-.948s.452-.772.564-1.188c.112-.416.168-.784.168-1.104h-2.16c-.016.24-.08.448-.192.624-.08.16-.204.304-.372.432s-.412.192-.732.192-.568-.064-.744-.192c-.176-.128-.304-.272-.384-.432-.08-.144-.136-.352-.168-.624h-2.16c0 .32.056.688.168 1.104.112.416.3.812.564 1.188.264.376.62.692 1.068.948.448.256 1 .384 1.656.384zm-2.952 16.824l.528-1.44h4.848l.528 1.44h5.04L92.52 32.656h-3.84l-6.072 16.008h5.04zm4.032-4.968h-2.16l1.08-2.808 1.08 2.808zm.456 8.808V49.6h-3.072v2.904h3.072zm11.832-3.84V42.52l4.392 6.144h4.224V32.656h-5.016v6.168l-4.416-6.168h-4.2v16.008h5.016zm18.336.408c.784 0 1.544-.104 2.28-.312.736-.208 1.42-.504 2.052-.888.632-.384 1.204-.844 1.716-1.38.512-.536.952-1.132 1.32-1.788v-5.328h-6.168v3.36h1.44c-.32.4-.704.716-1.152.948-.448.232-.944.348-1.488.348-.464 0-.9-.084-1.308-.252-.408-.168-.764-.4-1.068-.696-.304-.296-.544-.652-.72-1.068-.176-.416-.264-.864-.264-1.344 0-.48.08-.928.24-1.344.16-.416.38-.772.66-1.068.28-.296.612-.528.996-.696.384-.168.808-.252 1.272-.252.416 0 .84.068 1.272.204.432.136.792.332 1.08.588l2.904-4.128c-.352-.304-.792-.584-1.32-.84-.448-.224-1-.424-1.656-.6-.656-.176-1.432-.264-2.328-.264-1.152 0-2.228.22-3.228.66-1 .44-1.864 1.04-2.592 1.8s-1.3 1.652-1.716 2.676c-.416 1.024-.624 2.112-.624 3.264 0 1.184.22 2.288.66 3.312.44 1.024 1.04 1.912 1.8 2.664.76.752 1.652 1.344 2.676 1.776 1.024.432 2.112.648 3.264.648zm18.6-.408v-5.928h2.856v5.928h5.136V32.656h-5.136v5.448h-2.856v-5.448h-5.112v16.008h5.112zm17.712.408c1.152 0 2.24-.22 3.264-.66 1.024-.44 1.916-1.04 2.676-1.8.76-.76 1.36-1.652 1.8-2.676.44-1.024.66-2.112.66-3.264 0-1.152-.22-2.24-.66-3.264-.44-1.024-1.04-1.916-1.8-2.676-.76-.76-1.652-1.36-2.676-1.8-1.024-.44-2.112-.66-3.264-.66-1.152 0-2.24.22-3.264.66-1.024.44-1.916 1.04-2.676 1.8-.76.76-1.36 1.652-1.8 2.676-.44 1.024-.66 2.112-.66 3.264 0 1.152.22 2.24.66 3.264.44 1.024 1.04 1.916 1.8 2.676.76.76 1.652 1.36 2.676 1.8 1.024.44 2.112.66 3.264.66zm0-5.04c-.464 0-.9-.088-1.308-.264-.408-.176-.764-.416-1.068-.72-.304-.304-.544-.66-.72-1.068-.176-.408-.264-.844-.264-1.308 0-.464.088-.9.264-1.308.176-.408.416-.764.72-1.068.304-.304.66-.544 1.068-.72.408-.176.844-.264 1.308-.264.464 0 .9.088 1.308.264.408.176.764.416 1.068.72.304.304.544.66.72 1.068.176.408.264.844.264 1.308 0 .464-.088.9-.264 1.308-.176.408-.416.764-.72 1.068-.304.304-.66.544-1.068.72-.408.176-.844.264-1.308.264zM176.52 31.72L174.528 28H171l2.88 3.72h2.64zm-4.464 16.944l.528-1.44h4.848l.528 1.44H183l-6.072-16.008h-3.84l-6.072 16.008h5.04zm4.032-4.968h-2.16l1.08-2.808 1.08 2.808zm12.696 4.968V32.656h-5.424v16.008h5.424z" transform="translate(330 21.336)"/>
                        </g>
                    </g>
                </g>
            </g>
        </g>
    </g>
</svg>
