<svg xmlns="http://www.w3.org/2000/svg" xmlns:xlink="http://www.w3.org/1999/xlink" width="40" height="40" viewBox="0 0 40 40">
    <defs>
        <linearGradient id="cmyvacpqrc" x1="50%" x2="50%" y1="0%" y2="100%">
            <stop offset="0%" stop-color="#F57700"/>
            <stop offset="100%" stop-color="#E77200"/>
        </linearGradient>
        <linearGradient id="zj0e8sqmrd" x1="50%" x2="50%" y1="0%" y2="100%">
            <stop offset="0%" stop-color="#FE9900"/>
            <stop offset="100%" stop-color="#F18114"/>
        </linearGradient>
        <linearGradient id="e2nunj0moh" x1="78.21%" x2="34.161%" y1="104.573%" y2="-9.263%">
            <stop offset="15%" stop-color="#FFE182"/>
            <stop offset="15.77%" stop-color="#FDDD7E"/>
            <stop offset="25.04%" stop-color="#EAB14C"/>
            <stop offset="32.07%" stop-color="#DE962D"/>
            <stop offset="36%" stop-color="#D98C21"/>
            <stop offset="53%" stop-color="#FFC737"/>
            <stop offset="75%" stop-color="#FFF1BE"/>
            <stop offset="94%" stop-color="#FEF6A5"/>
            <stop offset="100%" stop-color="#FDFDD1"/>
        </linearGradient>
        <linearGradient id="2moxa891pg" x1="78.137%" x2="35.878%" y1="104.387%" y2="-4.827%">
            <stop offset="0%" stop-color="#9F7623"/>
            <stop offset="100%" stop-color="#FFE799"/>
        </linearGradient>
        <linearGradient id="jior4kf8hj" x1="859.525%" x2="7.804%" y1="2146.69%" y2="-54.713%">
            <stop offset="15%" stop-color="#FFE182"/>
            <stop offset="15.77%" stop-color="#FDDD7E"/>
            <stop offset="25.04%" stop-color="#EAB14C"/>
            <stop offset="32.07%" stop-color="#DE962D"/>
            <stop offset="36%" stop-color="#D98C21"/>
            <stop offset="53%" stop-color="#FFC737"/>
            <stop offset="75%" stop-color="#FFF1BE"/>
            <stop offset="94%" stop-color="#FEF6A5"/>
            <stop offset="100%" stop-color="#FDFDD1"/>
        </linearGradient>
        <linearGradient id="4he9sst53i" x1="68.176%" x2="29.235%" y1="101.324%" y2=".672%">
            <stop offset="0%" stop-color="#9F7623"/>
            <stop offset="100%" stop-color="#FFE799"/>
        </linearGradient>
        <linearGradient id="rv4blxx4el" x1="57.227%" x2="-794.494%" y1="71.08%" y2="-2130.323%">
            <stop offset="15%" stop-color="#FFE182"/>
            <stop offset="15.77%" stop-color="#FDDD7E"/>
            <stop offset="25.04%" stop-color="#EAB14C"/>
            <stop offset="32.07%" stop-color="#DE962D"/>
            <stop offset="36%" stop-color="#D98C21"/>
            <stop offset="53%" stop-color="#FFC737"/>
            <stop offset="75%" stop-color="#FFF1BE"/>
            <stop offset="94%" stop-color="#FEF6A5"/>
            <stop offset="100%" stop-color="#FDFDD1"/>
        </linearGradient>
        <linearGradient id="u7dqwrdgxk" x1="68.29%" x2="29.349%" y1="99.67%" y2="-.981%">
            <stop offset="0%" stop-color="#9F7623"/>
            <stop offset="100%" stop-color="#FFE799"/>
        </linearGradient>
        <linearGradient id="jzdx1aohyn" x1="64.358%" x2="20.586%" y1="104.456%" y2="-8.471%">
            <stop offset="15%" stop-color="#FFE182"/>
            <stop offset="15.77%" stop-color="#FDDD7E"/>
            <stop offset="25.04%" stop-color="#EAB14C"/>
            <stop offset="32.07%" stop-color="#DE962D"/>
            <stop offset="36%" stop-color="#D98C21"/>
            <stop offset="53%" stop-color="#FFC737"/>
            <stop offset="75%" stop-color="#FFF1BE"/>
            <stop offset="94%" stop-color="#FEF6A5"/>
            <stop offset="100%" stop-color="#FDFDD1"/>
        </linearGradient>
        <linearGradient id="7zrrvi9ipm" x1="64.287%" x2="22.296%" y1="104.274%" y2="-4.061%">
            <stop offset="0%" stop-color="#9F7623"/>
            <stop offset="100%" stop-color="#FFE799"/>
        </linearGradient>
        <linearGradient id="6yqh38itnp" x1="73.41%" x2="24.93%" y1="110.197%" y2="-14.548%">
            <stop offset="15%" stop-color="#FFE182"/>
            <stop offset="15.77%" stop-color="#FDDD7E"/>
            <stop offset="25.04%" stop-color="#EAB14C"/>
            <stop offset="32.07%" stop-color="#DE962D"/>
            <stop offset="36%" stop-color="#D98C21"/>
            <stop offset="53%" stop-color="#FFC737"/>
            <stop offset="75%" stop-color="#FFF1BE"/>
            <stop offset="94%" stop-color="#FEF6A5"/>
            <stop offset="100%" stop-color="#FDFDD1"/>
        </linearGradient>
        <linearGradient id="c1b2r7gcbo" x1="68.051%" x2="32.102%" y1="96.406%" y2="3.906%">
            <stop offset="0%" stop-color="#9F7623"/>
            <stop offset="100%" stop-color="#FFE799"/>
        </linearGradient>
        <filter id="hne7y00ape" width="380.3%" height="380.3%" x="-140.1%" y="-100.1%" filterUnits="objectBoundingBox">
            <feOffset dy="2" in="SourceAlpha" result="shadowOffsetOuter1"/>
            <feGaussianBlur in="shadowOffsetOuter1" result="shadowBlurOuter1" stdDeviation="2"/>
            <feColorMatrix in="shadowBlurOuter1" values="0 0 0 0 1 0 0 0 0 0.584313725 0 0 0 0 0.254901961 0 0 0 1 0"/>
        </filter>
        <circle id="n07f60s1pa" cx="20" cy="20" r="20"/>
        <path id="7lp60lupdf" d="M14.643 20.408L14.643 18.416 16.63 18.416 16.63 17.405 14.643 17.405 14.643 15.413 13.622 15.413 13.622 17.405 11.635 17.405 11.635 18.416 13.622 18.416 13.622 20.408z"/>
    </defs>
    <g fill="none" fill-rule="evenodd" opacity=".5">
        <g>
            <g>
                <g>
                    <g transform="translate(-285 -102) translate(12 102) translate(235) translate(38)">
                        <mask id="rugbczfnlb" fill="#fff">
                            <use xlink:href="#n07f60s1pa"/>
                        </mask>
                        <use fill="#FFCE47" xlink:href="#n07f60s1pa"/>
                        <g mask="url(#rugbczfnlb)">
                            <g>
                                <g>
                                    <path fill="#FFA626" d="M2.097 15.615L15.191 17.686 12.978 15.415 0 12.906z" transform="translate(1.966 -4.306) translate(1.448 10.342)"/>
                                    <path fill="#EE7500" d="M15.191 17.686L12.978 15.415 19.817 2.709 22.179 5.233z" transform="translate(1.966 -4.306) translate(1.448 10.342)"/>
                                    <path fill="#F78C0B" d="M12.978 15.415L0 12.906 6.748 0 19.817 2.709z" transform="translate(1.966 -4.306) translate(1.448 10.342)"/>
                                    <path fill="#FFD155" d="M1.965 15.61L0 12.906 6.748 0 8.844 2.709z" transform="translate(1.966 -4.306) translate(1.448 10.342)"/>
                                    <path fill="#FBE47C" d="M8.844 2.709L22.179 5.233 19.817 2.709 6.748 0z" transform="translate(1.966 -4.306) translate(1.448 10.342)"/>
                                </g>
                                <g>
                                    <path fill="url(#cmyvacpqrc)" d="M26.602 16.924L29.424 28.05 20.68 23.515 18.017 11.328z" transform="translate(1.966 -4.306) rotate(20 5.474 36.102)"/>
                                    <path fill="url(#zj0e8sqmrd)" d="M18.001 11.284L20.506 21.938 9.142 29.481 5.877 18.243z" transform="translate(1.966 -4.306) rotate(20 5.474 36.102)"/>
                                    <path fill="#FFD155" d="M14.778 24.742L17.959 36.19 9.196 29.831 5.877 18.243z" transform="translate(1.966 -4.306) rotate(20 5.474 36.102)"/>
                                    <g transform="translate(1.966 -4.306) rotate(20 5.474 36.102) scale(-1 1) rotate(28 -10.342 -34.996)">
                                        <path fill="#F4F4F4" d="M.51 15.585l.42-1.362.872.148c.99-.214 1.723-.14 2.199.22.475.36.986 1.082 1.53 2.164 1.038 1.063 1.812 1.496 2.324 1.3.511-.194.264.26-.743 1.365-1.19-.19-1.89-.527-2.104-1.013-.32-.729-1.054-2.369-1.829-2.518-.517-.099-1.406-.2-2.67-.304z" transform="rotate(11 4.311 16.822)"/>
                                        <path fill="#4A90E2" d="M9.11 1.552l1.2-.81.596.746c.921.536 1.456 1.123 1.604 1.759.148.636.094 1.591-.163 2.866.147 1.613.486 2.523 1.015 2.73.53.208.045.402-1.456.581-.822-1.008-1.164-1.788-1.024-2.338.21-.825.67-2.691.15-3.37-.346-.451-.987-1.173-1.923-2.164z" transform="rotate(15 11.34 5.083)"/>
                                        <circle cx="14.272" cy="14.967" r="1" fill="#FFD630"/>
                                        <ellipse cx="7.671" cy="9.616" fill="#797CFB" rx="1.249" ry="1.07"/>
                                        <circle cx="9.277" cy="18.892" r="1" fill="#7ED321"/>
                                        <circle cx="8.207" cy="1.028" r="1" fill="#7ED321"/>
                                        <circle cx="1.64" cy="17.65" r="1" fill="#FE9900"/>
                                        <path fill="#6669EB" d="M12.133 20.946l-.95-.975.5-.8c.253-1.064.632-1.758 1.139-2.08.507-.32 1.329-.528 2.466-.62 1.335-.588 2.032-1.175 2.092-1.76.06-.585.33-.154.812 1.294-.674 1.096-1.26 1.65-1.757 1.66-.746.017-2.429.067-2.89.771-.307.47-.777 1.306-1.412 2.51z" transform="rotate(11 14.687 17.702)"/>
                                    </g>
                                    <path fill="#FBE47C" d="M26.602 16.924L29.424 28.05 17.959 36.19 14.778 24.742z" transform="translate(1.966 -4.306) rotate(20 5.474 36.102)"/>
                                </g>
                                <g fill-rule="nonzero" transform="translate(1.966 -4.306)">
                                    <use fill="#000" filter="url(#hne7y00ape)" xlink:href="#7lp60lupdf"/>
                                    <use fill="#FFF" xlink:href="#7lp60lupdf"/>
                                </g>
                                <g>
                                    <path fill="url(#e2nunj0moh)" stroke="url(#2moxa891pg)" stroke-width=".5" d="M6.951 0C5.647 0 4.437.348 3.412.974c-.023 0-.023.023-.046.023s-.023.023-.047.023c-.116.116-.116.279-.023.395l.023.023.024.023c.093.07.21.07.302.023l.023-.023c.257-.14.513-.278.769-.394C5.228.742 6.067.58 6.905.58c.838 0 1.699.162 2.467.487.769.324 1.444.765 2.026 1.345.582.58 1.047 1.252 1.373 2.017.326.789.49 1.6.49 2.458 0 .858-.164 1.693-.49 2.458-.116.255-.233.51-.395.766 0 .023-.024.023-.024.046-.046.093-.046.232.024.301l.023.024.023.023c.116.093.28.093.396-.023l.023-.024c.023-.023.023-.046.023-.046.606-1.02.978-2.226.978-3.502.07-3.826-3.05-6.91-6.89-6.91" transform="translate(1.966 -4.306) translate(17.126 11.002)"/>
                                    <path fill="url(#jior4kf8hj)" stroke="url(#4he9sst53i)" stroke-width=".5" d="M11.468 11.363c-.117.116-.117.301 0 .417.116.116.302.116.419 0 .116-.116.116-.301 0-.417-.117-.116-.303-.116-.42 0" transform="translate(1.966 -4.306) translate(17.126 11.002)"/>
                                    <path fill="url(#rv4blxx4el)" stroke="url(#u7dqwrdgxk)" stroke-width=".5" d="M2.458 2.435c.116-.116.116-.302 0-.418-.117-.115-.303-.115-.42 0-.116.116-.116.302 0 .418.117.116.303.116.42 0" transform="translate(1.966 -4.306) translate(17.126 11.002)"/>
                                    <path fill="url(#jzdx1aohyn)" stroke="url(#7zrrvi9ipm)" stroke-width=".5" d="M10.583 12.383l-.023-.023c-.094-.07-.21-.07-.303-.023-.023 0-.023.023-.047.023-.256.139-.512.278-.768.394-.791.325-1.63.487-2.468.487-.838 0-1.7-.162-2.467-.487-.769-.325-1.444-.765-2.026-1.345-.582-.58-1.047-1.252-1.373-2.017-.326-.789-.49-1.6-.49-2.458 0-.858.164-1.693.49-2.458.116-.256.232-.51.395-.766 0 0 .024-.023.024-.046.046-.093.046-.209-.024-.302 0-.023-.023-.023-.046-.046L1.41 3.27c-.116-.07-.28-.07-.372.046-.024.023-.024.023-.024.046 0 .024-.023.024-.023.047C.363 4.429.013 5.635.013 6.934c0 3.803 3.12 6.91 6.961 6.91 1.304 0 2.515-.348 3.562-.974l.024-.023c.023 0 .023-.023.046-.023.117-.116.117-.279.023-.395-.023-.046-.046-.046-.046-.046" transform="translate(1.966 -4.306) translate(17.126 11.002)"/>
                                    <path fill="url(#6yqh38itnp)" stroke="url(#c1b2r7gcbo)" stroke-width=".5" d="M12.166 6.725c-.093-2.783-2.398-5.009-5.215-5.009-2.887 0-5.215 2.319-5.215 5.171 0 2.853 2.328 5.171 5.215 5.171.14 0 .28 0 .42-.023 1.443-.116 2.723-.811 3.608-1.855.116-.139.232-.301.326-.44.558-.812.861-1.81.861-2.853v-.162" transform="translate(1.966 -4.306) translate(17.126 11.002)"/>
                                    <g>
                                        <path fill="#9C6C18" d="M7.929 0.209L7.929 1.09 6.718 1.09 6.718 5.519 5.624 5.519 5.624 1.09 4.413 1.09 4.413 0.209z" transform="translate(1.966 -4.306) translate(17.126 11.002) translate(3.027 4.174)"/>
                                        <g>
                                            <path fill="#9C6C18" d="M.479 3.177H.037v-.789h.442V.208h1.793c1.513 0 1.792 1.021 1.792 2.575 0 1.878-.419 2.736-1.862 2.736H.479V3.177zm1.094-.789h.699v.789h-.699V4.73h.49c.767 0 .907-.464.907-1.902 0-1.206-.093-1.832-.931-1.832h-.466v1.391z" transform="translate(1.966 -4.306) translate(17.126 11.002) translate(3.027 4.174)"/>
                                            <g fill="#FFF">
                                                <path d="M.432 3.015H.013v-.789h.42V.046h1.769c1.49 0 1.77 1.02 1.77 2.574 0 1.879-.397 2.737-1.84 2.737h-1.7V3.015zm1.071-.789h.699v.789h-.699v1.553h.49c.744 0 .907-.463.907-1.901C2.9 1.46 2.807.835 1.97.835h-.466v1.391zM7.812.046L7.812.928 6.648.928 6.648 5.357 5.554 5.357 5.554.928 4.39.928 4.39.046z" transform="translate(1.966 -4.306) translate(17.126 11.002) translate(3.027 4.174)"/>
                                            </g>
                                        </g>
                                    </g>
                                </g>
                            </g>
                        </g>
                    </g>
                </g>
            </g>
        </g>
    </g>
</svg>
