<?xml version="1.0" encoding="UTF-8" standalone="no"?>
<svg width="34px" height="37px" viewBox="0 0 34 37" version="1.1" xmlns="http://www.w3.org/2000/svg" xmlns:xlink="http://www.w3.org/1999/xlink">
    <!-- Generator: Sketch 48.1 (47250) - http://www.bohemiancoding.com/sketch -->
    <title>noun_1255455_cc</title>
    <desc>Created with Sketch.</desc>
    <defs></defs>
    <g id="Pro_full" stroke="none" stroke-width="1" fill="none" fill-rule="evenodd" transform="translate(-656.000000, -27.000000)">
        <g id="noun_1255455_cc" transform="translate(656.000000, 27.000000)" fill="#000000" fill-rule="nonzero">
            <path d="M17.3515982,35.1213305 C8.06849315,35.1213305 1.82648402,26.9260426 1.82648402,19.2715132 C1.82648402,11.6169837 8.06392694,3.42169585 17.3515982,3.42169585 C22.8310502,3.42169585 27.173516,6.51241023 29.6392694,9.57049263 L21.2420091,9.44462643 L21.2146119,11.3093108 L32.4748858,11.4957793 L32.3013699,0 L30.4748858,0.0279702658 L30.5936073,7.85032128 C27.2648636,3.91675779 22.443024,1.63025456 17.3515982,1.5709966 C6.97260274,1.5709966 0,10.726597 0,19.2854983 C0,27.8443996 6.97260274,37 17.3515982,37 C26.2283105,37 32.109589,30.4736046 34,24.0171349 L32.2511416,23.4856999 C30.5525114,29.2708832 25.2876712,35.1213305 17.3515982,35.1213305 Z" id="Shape"></path>
        </g>
    </g>
</svg>