<?xml version="1.0" encoding="UTF-8" standalone="no"?>
<svg width="16px" height="32px" viewBox="0 0 16 32" version="1.1" xmlns="http://www.w3.org/2000/svg" xmlns:xlink="http://www.w3.org/1999/xlink">
    <!-- Generator: Sketch 46.2 (44496) - http://www.bohemiancoding.com/sketch -->
    <title>arrow</title>
    <desc>Created with Sketch.</desc>
    <defs></defs>
    <g id="ELT-page" stroke="none" stroke-width="1" fill="none" fill-rule="evenodd" opacity="0.3">
        <g id="8" transform="translate(-664.000000, -151.000000)" fill="#000000">
            <g id="arrow" transform="translate(672.000000, 167.000000) rotate(90.000000) translate(-672.000000, -167.000000) translate(656.000000, 159.000000)">
                <g id="Layer_1">
                    <path d="M8.25435897,-6.025 L21.5138462,8 L8.25435897,22.1625 C8.12307692,22.3 7.99179487,22.575 7.99179487,22.85 C7.99179487,23.125 8.12307692,23.4 8.25435897,23.5375 C8.64820513,23.95 9.17333333,23.95 9.56717949,23.5375 L23.4830769,8.6875 C23.614359,8.55 23.614359,8.4125 23.745641,8.275 C23.8769231,7.8625 23.745641,7.45 23.4830769,7.175 L9.56717949,-7.5375 C9.17333333,-7.95 8.64820513,-7.95 8.25435897,-7.5375 C7.99179487,-7.125 7.99179487,-6.4375 8.25435897,-6.025 L8.25435897,-6.025 Z" id="Shape" transform="translate(15.894469, 8.000000) rotate(-90.000000) translate(-15.894469, -8.000000) "></path>
                </g>
            </g>
        </g>
    </g>
</svg>