<svg xmlns="http://www.w3.org/2000/svg" width="26" height="26" viewBox="0 0 26 26">
    <g fill="none" fill-rule="evenodd">
        <path stroke="#FFF" stroke-width=".5" d="M1 1h24v24H1z" opacity=".01"/>
        <path fill="#000" d="M7.832 13.006a2.615 2.615 0 0 1-.749 1.913 2.777 2.777 0 0 1-2.011.841A2.764 2.764 0 0 1 2.31 13a2.764 2.764 0 0 1 2.76-2.76 2.765 2.765 0 0 1 2.76 2.766m8.337-6.94a2.616 2.616 0 0 1 .749-1.913 2.777 2.777 0 0 1 2.011-.842 2.764 2.764 0 0 1 2.76 2.76 2.763 2.763 0 0 1-2.76 2.761 2.765 2.765 0 0 1-2.76-2.767m5.52 13.863a2.73 2.73 0 0 1-2.76 2.76 2.764 2.764 0 0 1-2.76-2.76 2.764 2.764 0 0 1 2.76-2.76 2.764 2.764 0 0 1 2.76 2.76m-2.76-4.168c-1.3 0-2.536.64-3.343 1.72l-6.54-3.247c.133-.441.194-.837.194-1.233 0-.396-.061-.792-.193-1.233l6.54-3.247c.806 1.08 2.042 1.72 3.342 1.72a4.124 4.124 0 0 0 4.12-4.12c0-2.233-1.887-4.12-4.12-4.12a4.124 4.124 0 0 0-4.12 4.12c0 .396.062.792.194 1.233l-6.54 3.246C7.656 9.52 6.42 8.88 5.12 8.88A4.124 4.124 0 0 0 1 13a4.124 4.124 0 0 0 4.12 4.12c1.3 0 2.536-.64 3.342-1.72l6.54 3.247c-.132.44-.194.837-.194 1.233a4.125 4.125 0 0 0 4.12 4.12 4.124 4.124 0 0 0 4.12-4.12 4.124 4.124 0 0 0-4.12-4.12"/>
    </g>
</svg>
