<?xml version="1.0" encoding="utf-8"?>
<!-- Generator: Adobe Illustrator 19.2.1, SVG Export Plug-In . SVG Version: 6.00 Build 0)  -->
<svg version="1.1" id="Layer_1" xmlns="http://www.w3.org/2000/svg" xmlns:xlink="http://www.w3.org/1999/xlink" x="0px" y="0px"
	 viewBox="46.1 128.4 529 356" style="enable-background:new 46.1 128.4 529 356;" xml:space="preserve">
<style type="text/css">
	.st0{fill:#589F39;}
</style>
<g>
	<path class="st0" d="M482.8,166.8h-330c-18.5,0-33.4,15-33.4,33.4v26.7h396.9v-26.7C516.2,181.7,501.3,166.8,482.8,166.8z"/>
	<path class="st0" d="M119.4,267v142c0,18.5,15,33.4,33.4,33.4h330c18.5,0,33.4-15,33.4-33.4V267H119.4z M342.3,394.4H155.4V383
		h186.9V394.4z M412.3,369.4h-37.1h-12h-20.9h-49.1h-18.8h-49.1h-70v-14.6h70h49.1h18.8h49.1h20.9h12h37.1V369.4z"/>
</g>
</svg>
