<?xml version="1.0" encoding="utf-8"?>
<!-- Generator: Adobe Illustrator 19.2.1, SVG Export Plug-In . SVG Version: 6.00 Build 0)  -->
<svg version="1.1" id="Layer_1" xmlns="http://www.w3.org/2000/svg" xmlns:xlink="http://www.w3.org/1999/xlink" x="0px" y="0px"
	 viewBox="0 0 67.7 47.3" style="enable-background:new 0 0 67.7 47.3;" xml:space="preserve">
<style type="text/css">
	.st0{fill:#FFFFFF;}
	.st1{fill:#579F45;}
</style>
<path class="st0" d="M34,23.9c0.1,0,0.2,0,0.3-0.1c0.1-0.1,0.1-0.2,0.1-0.3c0-0.1,0-0.2-0.1-0.3C34.2,23,34.1,23,34,23
	c-0.1,0-0.2,0-0.3,0.1c-0.1,0.1-0.1,0.2-0.1,0.3c0,0.1,0,0.2,0.1,0.3C33.7,23.8,33.8,23.9,34,23.9L34,23.9z M34,23.9"/>
<path d="M34,24c0.1,0,0.3-0.1,0.3-0.2c0.1-0.1,0.1-0.3,0.1-0.4c0-0.2,0-0.4-0.1-0.5c-0.1-0.1-0.2-0.2-0.4-0.2c-0.1,0-0.2,0-0.3,0.1
	c-0.1,0.1-0.2,0.3-0.2,0.5c0,0.2,0,0.3,0.1,0.5C33.7,24,33.8,24,34,24L34,24z M34,24"/>
<path class="st1" d="M6.3,43c0.5,0.3,1.1,0.4,1.7,0.4h51.9c1.1,0,2.1-0.5,2.8-1.2c0.8-0.8,1.2-1.9,1.2-3.1V7.7
	c0-1.2-0.5-2.3-1.2-3.1C62,3.9,61,3.4,59.9,3.4H8C5.8,3.4,4,5.3,4,7.7v31.5C4,40.9,4.9,42.3,6.3,43L6.3,43z"/>
<g>
	<path class="st0" d="M4.7,12c0.3-0.3,0.6-0.4,1-0.4c0.2,0,0.4-0.1,0.5-0.4c-0.1,0-0.1,0-0.1,0c-0.1,0.1-0.2,0.1-0.4,0
		c-0.1-0.1-0.1-0.1,0-0.2C5.7,10.9,5.8,11,5.9,11c0.2,0,0.7,0.4,0.5-0.4c0-0.1,0.3-0.2,0.5-0.2C7.6,10.2,8.3,10.1,9,10
		C9.2,10,9.5,10,9.7,10c0.3,0,0.6,0,0.8,0.3c0.2,0.3,0.5,0.3,0.7,0.2c0.9-0.4,1.9-0.2,2.9-0.1c0.1,0,0.2,0.1,0.3,0.1
		c0.4,0.2,0.7,0.4,1.2,0.1c0.3-0.2,0.8-0.2,1.2,0c0.4,0.2,0.7,0,0.9-0.4c0.1-0.1,0.1-0.3,0.3-0.4c0.1-0.1,0.2-0.1,0.3,0.1
		c0.2,0.6,0.2,0.6,0.9,0.3c0.1,0,0.2-0.2,0.3,0c0.1,0.1-0.1,0.3-0.2,0.3c-0.4,0-0.7,0.5-1.2,0.4c0,0-0.1,0-0.1,0
		c-0.1,0.5-0.5,0.4-0.8,0.6c-0.3,0.2-0.6,0.3-0.9,0.5c-0.4,0.4-0.4,0.7,0.1,1c0.3,0.2,0.6,0.2,1,0.3c0,0.2-0.1,0.3-0.1,0.5
		c0,0.2,0.1,0.3,0.3,0.3c0.1,0,0.3,0,0.3-0.2c0,0,0-0.1,0-0.1c0-0.6,0.9-0.3,0.8-0.9c-0.1-0.6,0.3-0.8,0.6-1.1c0.3-0.2,0.9,0,1,0.3
		c0,0.5,0.2,0.4,0.5,0.3c0.1-0.1,0.3-0.2,0.4-0.1c0.2,0.1,0.1,0.3,0,0.5c-0.1,0.4,0.2,0.6,0.4,0.7c0.3,0.1,0.2,0.3,0.1,0.5
		c-0.3,0.3-0.6,0.5-1,0.5c-0.5,0-1.1-0.1-1.6,0.3c0.3,0.2,0.6,0,0.8,0.1c-0.1,0.2-0.5,0.5,0.1,0.5c0.2,0,0.3-0.2,0.5,0
		c-0.4,0.3-0.9,0.3-1.2,0.6c0,0.1-0.1,0-0.1-0.1c-0.1-0.5-0.4-0.2-0.6-0.1c-0.7,0.7-1.6,1.1-2.1,2c-0.2,0.3-0.5,0.5-0.9,0.7
		c-0.5,0.3-0.6,0.6-0.5,1.2c0,0.1,0.1,0.2,0.1,0.4c0,0.2-0.1,0.3-0.2,0.3c-0.2,0-0.2-0.1-0.2-0.3c0-0.2,0-0.4-0.2-0.6
		c-0.3-0.3-0.7-0.4-1-0.1c-0.1,0.1-0.2,0.2-0.4,0.1c-0.6-0.2-1.3,0.1-1.5,0.7c-0.1,0.3-0.2,0.6-0.3,1c-0.1,0.4,0.1,0.7,0.5,0.9
		c0.4,0.1,0.7,0.1,0.9-0.3c0.1-0.1,0.1-0.2,0.2-0.3c0.1-0.1,0.3-0.1,0.4,0c0.1,0.1,0.1,0.2,0.1,0.3c-0.1,0.3-0.2,0.6-0.3,0.9
		c0.2,0,0.3,0,0.4,0c0.3,0,0.5,0.1,0.4,0.5c-0.1,0.5-0.1,1,0.4,1.4c-0.4-0.1-0.8-0.2-0.9-0.7c-0.1-0.3-0.4-0.5-0.7-0.6
		c-0.7-0.3-1.3-0.4-2-0.6c-0.3-0.1-0.6-0.4-0.9-0.6c-0.1-0.1-0.2-0.2-0.2-0.3c0.1-0.4-0.1-0.7-0.3-1c-0.3-0.5-0.5-0.9-0.7-1.5
		c0-0.1-0.1-0.4-0.3-0.3c-0.2,0.1-0.1,0.3,0,0.4c0.1,0.3,0.3,0.7,0.3,1.2c-0.3-0.5-0.5-0.9-0.5-1.4c0-0.3-0.1-0.5-0.3-0.7
		C7.6,18,7.5,17,7.9,16.5c0.4-0.5,0.7-1,1-1.6c0-0.1,0-2.1,0-2.2c-0.2-0.2-0.4-0.4-0.7-0.5c-0.8-0.2-1.6-0.2-2.4,0.3
		c-0.4,0.2-0.8,0.1-1.1-0.1C4.7,12.3,4.7,12.1,4.7,12z"/>
	<path class="st0" d="M21.1,26.7c0.3,0.1,0.7,0.1,0.9,0.4c0.1,0.1,0.2,0.1,0.4,0.1c0.6,0,1.1,0.3,1.6,0.6c0.3,0.2,0.3,0.5,0.1,0.8
		c-0.6,0.7-0.7,1.5-0.7,2.3c-0.1,0.8-0.3,1.3-1.1,1.4c-0.3,0-0.5,0.2-0.5,0.7c-0.1,0.7-0.4,1.4-0.9,1.9c-0.2,0.3-0.5,0-0.7,0
		c0,0.1,0.1,0.2,0.1,0.3c0.1,0.1,0.4,0.1,0.3,0.4c-0.1,0.2-0.2,0.6-0.6,0.5c-0.2,0-0.3,0-0.3,0.2c0,0.4-0.2,0.4-0.6,0.3
		c0.3,0.4,0.4,0.7,0.1,1.1c0,0,0,0.1,0,0.1c0.6,0.3,0.1,0.8,0.2,1.2c0,0.1,0,0.2,0,0.4c-0.1,0-0.3,0-0.4,0c-0.3-0.3-0.6-0.6-0.8-1
		C18,38,17.8,37.8,18,37.5c0.1-0.2-0.1-0.5-0.2-0.7c-0.4-0.5-0.4-1.1-0.4-1.6c-0.1-1.2-0.2-2.3-0.1-3.5c0-0.4-0.1-0.6-0.4-0.8
		c-0.7-0.4-1.3-0.9-1.6-1.8c-0.1-0.2-0.2-0.5-0.3-0.7c-0.2-0.3-0.5-0.5-0.2-1c-0.3-0.8,0.4-1.1,0.6-1.7c0.1-0.3,0.3-0.5,0.1-0.8
		c-0.1-0.1,0-0.3,0.1-0.4c0.2-0.2,0.3-0.4,0.5-0.5c0.5-0.4,0.6-0.4,0.7,0.3c0,0,0.1-0.1,0.1-0.1c0.1-0.5,0.4-0.5,0.7-0.3
		c0,0,0.1,0.1,0.1,0.1c0.9,0,1.6,0.6,2.3,1.2c0.1,0.1,0.3,0.1,0.4,0.2c0.5,0.1,0.8,0.7,0.6,1.2C20.8,26.8,21,26.7,21.1,26.7z"/>
	<path class="st0" d="M23.1,7.6c0.8,0.3,1.7,0.3,2.6,0.2c0.4-0.1,0.7,0.1,1.1,0.1c0.8,0,1.7,0.1,2.5-0.1c0.2,0,0.4,0.1,0.6,0.1
		c0.1,0,0.2,0.1,0.2,0.2c0,0.1-0.1,0.1-0.2,0.2c-0.2,0.1-0.4,0.3-0.5,0.6c0,0.3-0.3,0.3-0.5,0.3c-0.3,0-0.5,0.2-0.4,0.5
		c0,0.4-0.2,0.6-0.5,0.6c-0.9,0-1.7,0.6-2.5,0.9c-0.3,0.1-0.3,0.5-0.5,0.7c-0.3,0.4-0.5,0.4-0.8,0c-0.3-0.3-0.3-0.8-0.5-1.2
		c-0.1-0.2,0.1-0.2,0.2-0.2c0.4,0,0.5-0.2,0.4-0.6c-0.2-0.7-0.5-1.1-1.2-1.2c-0.1,0-0.2,0-0.3-0.2c0.3,0,0.5,0,0.7,0
		c0.2,0,0.4-0.1,0.3-0.3c0-0.2-0.2-0.1-0.4-0.1c-0.8,0.2-1.6,0.3-2.4,0.7c-0.4,0.2-0.8-0.1-1.1-0.3c-0.2-0.1,0-0.3,0.2-0.4
		c0.2-0.1,0.5-0.1,0.7-0.1c0.6,0.1,1-0.4,1.5-0.4C22.5,7.5,22.8,7.7,23.1,7.6C23.1,7.6,23.1,7.6,23.1,7.6z"/>
	<path class="st0" d="M63.2,29.2c0,0-0.1,0-0.1,0c-0.5,0-0.7-0.4-1-0.6c-0.4-0.2-0.7,0.3-1.1,0c-0.2-0.1-0.4-0.2-0.4-0.5
		c0-0.2-0.2-0.4-0.5-0.5c-0.1-0.1-0.1-0.1,0-0.2c0.3-0.4,0.6-0.4,1-0.2c0.6,0.3,1.2,0.4,1.4,1.2c0.1,0.3,0.4,0.4,0.7,0.6
		C63.2,29.2,63.2,29.2,63.2,29.2z"/>
	<path class="st0" d="M23,7.6c-0.2,0.2-0.5,0.1-0.7,0.1c0,0,0-0.1,0-0.1C22.6,7.6,22.8,7.6,23,7.6z"/>
	<path class="st0" d="M43.6,10.5c0.2-0.1,0.2-0.3,0.1-0.5c-0.1-0.1-0.1-0.4,0.1-0.4c1,0,1.8-0.7,2.8-0.7C47,8.9,47.4,9,47.8,9
		c0.6,0.1-0.2,0.3,0.1,0.6c0.6-0.1,1.3,0.4,2.1,0.1c0.2-0.1,0.5-0.1,0.7,0c0.5,0.3,1.1,0.2,1.6,0.3c0.2,0,0.4,0.1,0.6-0.1
		c0.2-0.4,0.5-0.2,0.8-0.1c0.3,0.1,0.6,0.2,0.9,0.2c1.1,0,2.3,0.2,3.4,0.4c0.2,0,0.3-0.2,0.5-0.2c0.3,0,0.6,0.1,0.9,0.1
		c0.6,0.1,1.2,0.4,1.9,0.3c0.3,0,0.6,0.1,0.7,0.4c-0.5,0.1-0.9-0.5-1.4,0.1c0.2,0.2,0.5,0.3,0.7,0.5c-0.3,0-0.5,0.2-0.7,0.5
		c-0.1,0.1-0.1,0.3-0.3,0c-0.1-0.2-0.3,0.1-0.5,0.2c-0.1,0.1-0.2,0.2-0.1,0.3c0.6,0.7,0.6,0.7,0.5,1.7c-0.5-0.3-0.8-0.9-1.1-1.3
		c-0.1-0.2-0.1-0.4,0.1-0.6c0.2-0.2,0.1-0.4,0-0.5c-0.1-0.2-0.3,0-0.4,0c-0.5-0.1-0.8,0.1-0.8,0.6c0,0.1-0.2,0-0.3,0
		c-0.3-0.1-0.7-0.1-1-0.2c-0.5-0.1-1.1,0.6-0.9,1.1c0.1,0.3,0.4,0.3,0.6,0.3c0.6-0.1,0.9,0.2,1.2,0.6c0.4,0.5,0.1,1.6-0.5,1.8
		c-0.4,0.1-0.2,0.5-0.4,0.7c-0.1,0.2,0.1,0.3,0.2,0.4c0.1,0.1,0.3,0.2,0.4,0.3c0.1,0.1,0.3,0.2,0.2,0.4c-0.1,0.2-0.2,0.4-0.4,0.4
		c-0.2,0-0.2-0.2-0.2-0.3c-0.1-0.4-0.6-0.5-0.7-0.9c0-0.1-0.1-0.1-0.2,0c-0.2,0.2-0.3,0.1-0.4-0.2c-0.1-0.3-0.2-0.2-0.4-0.1
		c-0.2,0.2-0.3,0.4-0.5,0.8c0.3,0,0.6,0,1,0.1c-0.4,0.6,0.1,0.9,0.3,1.3c0.6,0.8,0.4,1.8-0.5,2.1c-0.3,0.1-0.5,0.3-0.7,0.6
		c-0.1,0.2-0.1,0.4-0.3,0.5c-0.1,0-0.1-0.1-0.1-0.2c0-0.3,0-0.5-0.3-0.5c-0.3-0.1-0.3,0.2-0.5,0.4c-0.2,0.2,0,0.4,0.1,0.6
		c0.3,0.2,0.4,0.6,0.6,0.9c0.2,0.3,0.2,0.5,0,0.8c-0.5,0.7-0.7,0.7-1.2,0c-0.1-0.2-0.2-0.5-0.4-0.4c-0.3,0.1-0.1,0.4-0.2,0.6
		c0,0.1,0,0.2-0.1,0.4c-0.1-0.2,0-0.5-0.1-0.7c-0.1-0.3,0.1-1-0.6-0.9c0,0-0.1-0.1-0.1-0.1c0-0.5-0.5-0.7-0.7-1.1
		c-0.3-0.6-0.9-0.6-1.3-0.1c-0.1,0.2-0.3,0.3-0.5,0.4c-0.6,0.3-0.8,0.9-0.7,1.5c0,0.3,0.1,0.7-0.3,0.9c-0.2,0.1-0.3,0.1-0.4-0.1
		c-0.2-0.9-0.8-1.6-0.8-2.6c0-0.2,0-0.4-0.3-0.3c-0.2,0.1-0.4,0-0.5-0.2c-0.4-0.6-1-0.9-1.7-0.8c-0.4,0-0.8,0-1-0.4
		C43.2,20,43.1,20,43,20c-0.6,0.1-1-0.3-1.5-0.9c0.1,0.6,0.2,1.2,0.6,1.5c0.3,0.3,0.6,0.1,0.8-0.2c0.2-0.2,0.3-0.2,0.4,0.1
		c0,0.1,0.1,0.2,0.2,0.3c0.6,0.3,0.3,0.6,0.1,1.1c-0.6,0.9-1.5,1.1-2.3,1.5c-0.3,0.1-0.5,0-0.6-0.3c-0.1-0.6-0.4-1-0.8-1.5
		c-0.4-0.5-0.5-1.1-0.9-1.6c-0.2-0.2-0.3-0.3-0.6-0.2c0.6,1.1,0.8,2.3,1.7,3.2c0.1,0.1,0.1,0.2,0.1,0.2c0.2,0.2,0.2,0.8,0.4,0.8
		c0.5,0,0.9,0.1,1.4-0.1c0,0,0.1,0,0.2,0c0,0.9-0.6,1.5-1.1,2.1c-0.4,0.5-0.8,1.1-1.3,1.6c-0.2,0.2-0.2,0.5-0.1,0.7
		c0.1,0.3,0.2,0.5,0.2,0.8c0.1,0.6,0.1,1.2-0.5,1.6c-0.4,0.3-0.7,0.7-0.5,1.4c0,0.1,0,0.2,0,0.2c-0.6,0.5-0.9,1.4-1.5,1.9
		c-0.5,0.4-1,0.5-1.6,0.7c-0.2,0-0.3-0.2-0.3-0.4c-0.1-0.4-0.2-0.8-0.5-1.2c-0.1-0.1-0.2-0.4-0.2-0.6c0-0.7-0.3-1.2-0.5-1.7
		c-0.2-0.3-0.2-0.7,0-1c0.6-1,0.2-2-0.3-2.8c-0.2-0.3-0.4-0.5-0.2-0.9c0.2-0.5-0.1-0.8-0.6-0.9c-0.1,0-0.1,0-0.2,0
		c-0.4-0.6-1-0.4-1.5-0.2c-0.4,0.1-0.8,0.2-1.1,0.3c-0.6,0.1-1-0.3-1.3-0.8c-0.2-0.3-0.4-0.7-0.7-1c-0.2-0.2-0.2-0.6-0.1-0.9
		c0.1-0.4,0.2-0.7,0.1-1.1c-0.1-0.4,0.2-0.8,0.4-1.1c0.2-0.3,0.4-0.5,0.6-0.7c0.2-0.2,0.4-0.5,0.5-0.8c0.3-0.6,0.8-1,1.5-1
		c0.7,0,1.4-0.2,2.1-0.3c0.3,0,0.5-0.1,0.3,0.3c-0.2,0.5,0.3,0.6,0.5,0.8c0.3,0.1,0.5,0.2,0.8,0.4c0.3,0.2,0.6,0.2,0.7-0.2
		c0.1-0.3,0.2-0.2,0.4-0.1c0.6,0.4,1.4,0.2,2,0.3c0.3,0,0.7-0.8,0.6-1.1c0-0.1-0.1-0.2-0.3-0.2c-0.2,0-0.4,0-0.6,0
		c-0.9,0-1-0.2-1.1-1c-0.1-0.1-0.2,0.1-0.3,0.1c-0.3,0-0.6,0-0.3,0.4c0.1,0.2-0.1,0.3-0.1,0.4c-0.1,0.1-0.2,0-0.3-0.1
		c-0.1-0.3-0.4-0.5-0.4-0.9c0-0.1-1.1-1-1.2-1c-0.2,0-0.2,0.1-0.1,0.2c0.1,0.2,0.3,0.4,0.5,0.5c0.2,0.1,0.3,0.2,0.4,0.3
		c0.1,0.1,0,0.2-0.1,0.3c-0.1,0.2-0.1,0.1-0.2,0c-0.3-0.5-0.9-0.5-1.2-1c0,0-0.2-0.1-0.2-0.1c-0.2,0.3-0.7,0.1-0.9,0.3
		c-0.3,0.3-0.7,0.4-0.8,0.9c-0.1,0.5-1.2,0.8-1.6,0.4c-0.1-0.2-0.1-1.1,0-1.3c0.2-0.3,0.5-0.2,0.7-0.1c0.2,0.1,0.5,0.1,0.6-0.1
		c0.1-0.2,0.1-0.5-0.1-0.6c-0.1-0.1-0.2-0.1-0.3-0.2c0.4-0.2,0.4-0.2,0.2-0.4c0.6,0,1.1-0.4,1.5-0.8c0.4-0.4,0.9-0.6,1.4-0.4
		c0.4,0.1,0.7-0.1,1.1,0c0.1,0,0.2-0.1,0.3-0.2c0-0.2,0.1-0.3,0.3-0.3c0.3,0,0-0.3,0.1-0.5c0.1,0,0.2,0,0.3,0c0.2,0,0.3-0.1,0.3-0.3
		c0-0.2-0.2-0.1-0.3-0.1c-0.6,0.1-0.7,0-0.4-0.6c0-0.1,0.1-0.2,0-0.3c-0.1-0.1-0.2,0-0.3,0c-0.4,0.2-0.7,0.4-0.6,1
		c0.1,0.4-0.2,0.7-0.5,0.9c-0.2,0.1-0.4,0-0.5-0.2c-0.2-0.3-0.5-0.5-0.8-0.5c-0.1,0-0.3,0.2-0.3-0.1c0-0.2,0-0.5,0.2-0.5
		c0.3,0,0.4-0.3,0.6-0.5c0.5-0.5,1-0.9,1.6-1.2c0.4-0.2,0.9,0,1.3,0c0.5,0,0.9,0.2,1.4,0.4c0.1,0,0.3,0.1,0.2,0.2
		c0,0.1-0.1,0.2-0.3,0.1c0,0,0,0,0,0c-0.2-0.1-0.4-0.1-0.5,0.1c-0.1,0.1,0.1,0.2,0.2,0.3c0.2,0.1,0.4,0.4,0.7,0.2
		c0.3-0.3,0.7-0.5,1.1-0.7c0.3-0.1,0.7-0.1,1-0.2c0.6-0.2,1.2-0.1,1.8,0.1c0.1,0.1,0.3,0,0.4-0.1c0.1-0.2-0.1-0.2-0.1-0.3
		c-0.1-0.2-0.4-0.4-0.1-0.6c0.2-0.2,0.5,0,0.6,0.2c0.1,0.2,0.1,0.3,0.1,0.5c0,0.2,0,0.3,0.2,0.3c0.2,0,0.3-0.1,0.3-0.3
		C43.5,10.4,43.6,10.4,43.6,10.5z"/>
	<path class="st0" d="M61.3,29.5c0.3,0.6,0.5,1,0.5,1.6c0,0.4,0.3,0.8,0.6,1.1c0.3,0.3,0.4,0.6,0.3,1c-0.1,1.2-1.7,2.7-2.4,2.9
		c-0.6,0.2-1-0.1-1.1-0.7c-0.1-0.2,0-0.4-0.1-0.6c-0.4,0.3-0.6,0.2-0.8-0.2c-0.3-0.5-0.8-0.2-1.2,0c-0.7,0.2-1.3,0.4-2,0.6
		c-0.2,0.1-0.5,0.1-0.3-0.3c0.1-0.1,0.1-0.3,0.1-0.5c-0.1-0.5,0-0.9,0-1.4c0.1-0.7,0.3-0.9,0.9-1.1c0.5-0.2,0.9-0.3,1.2-0.8
		c0.2-0.2,0.5-0.5,0.7-0.7c0.2-0.2,0.3-0.2,0.4,0c0.1,0.2,0.3,0.3,0.4-0.1c0.2-0.4,0.6-0.7,1.1-0.6c0.2,0,0.3,0.1,0.2,0.3
		c-0.1,0.4,0.2,0.8,0.5,0.9c0.4,0.1,0.5-0.2,0.6-0.5C61.1,30.1,61.2,29.8,61.3,29.5z"/>
	<path class="st0" d="M19.8,9.9c-0.1,0-0.2,0-0.2,0c-0.2,0.1-0.3,0.1-0.3-0.2c0-0.2,0.1-0.3,0.3-0.3c0.6,0,1.2,0,1.8,0.3
		c0.3,0.2,0.4,0.9,0.3,1.2c0,0.4-0.6,0.3-0.4,0.8c0,0.1-0.2,0.1-0.3,0.1c-0.2,0-0.4-0.1-0.6-0.3c-0.2-0.1-0.3-0.3,0-0.4
		c0.2-0.1,0.4-0.2,0.4-0.5c-0.1-0.3-0.1-0.6-0.5-0.6C20.1,10,19.9,10,19.8,9.9z"/>
	<path class="st0" d="M55.3,27.4c-0.4,0.1-0.6-0.2-0.7-0.6c-0.1-0.2-0.1-0.4,0.2-0.4c0.1,0,0.1-0.1,0.1-0.1c0.1-0.6,0.7-0.6,1-1
		c0.1-0.1,0.1-0.1,0.2-0.1c0.1,0.1,0.3,0.2,0.2,0.3c-0.2,0.5,0.1,1.1-0.3,1.5C55.8,27.4,55.8,27.4,55.3,27.4z"/>
	<path class="st0" d="M41.9,29.7c0.1,0.7-0.1,1.2-0.3,1.7c-0.1,0.2-0.3,0.4-0.3,0.7c0,0.3-0.1,0.5-0.4,0.6c-0.2,0-0.3,0-0.4-0.1
		c-0.1-0.3-0.2-0.5,0-0.8c0.1-0.2,0.2-0.3,0.2-0.5c-0.1-0.6,0.1-0.9,0.6-1C41.6,30.2,41.7,30,41.9,29.7z"/>
	<path class="st0" d="M14,9.7c0.4-0.4,0.9-0.5,1.2-0.2c0.4,0.3,0.7,0.3,1.1,0.2c0.1,0,0.3-0.2,0.3,0c0.1,0.2,0,0.4-0.2,0.5
		c-0.2,0.1-0.4,0.2-0.6,0.1c-0.3-0.1-0.5,0-0.8,0c-0.3,0-0.5,0.1-0.6-0.4C14.6,9.7,14.2,9.9,14,9.7z"/>
	<path class="st0" d="M51.8,25.5c0.1,0,0.1,0,0.1,0c0.7,0.6,1.4,1.1,1.8,2.1c0.1,0.2,0.1,0.4-0.1,0.5c-0.2,0.2-0.3,0-0.4-0.2
		C52.8,27.1,52.3,26.3,51.8,25.5z"/>
	<path class="st0" d="M60.1,27.5c0,0.1,0,0.1,0,0.2c-0.3-0.1-0.7-0.1-0.8-0.6c0-0.1-0.2-0.2,0-0.3c0.1-0.1,0.2,0,0.3,0.2
		C59.7,27.2,59.7,27.5,60.1,27.5z"/>
	<path class="st0" d="M43.6,10.5c-0.1,0-0.1,0-0.2,0c-0.1-0.1-0.2-0.2-0.2-0.4C43.4,10.2,43.5,10.3,43.6,10.5z"/>
	<path class="st0" d="M21.1,26.7c-0.1,0.1-0.2,0.1-0.3,0.1c-0.1-0.1,0-0.1,0.1-0.2C20.9,26.7,21,26.7,21.1,26.7z"/>
</g>
</svg>
